<svg viewBox="0 0 512 512" xmlns="http://www.w3.org/2000/svg" xmlns:xlink="http://www.w3.org/1999/xlink"><style>:root&gt;svg{display:none}:root&gt;svg:target{display:block}</style><svg viewBox="0 0 24 24" id="cat" xmlns="http://www.w3.org/2000/svg"><path d="M15.492 3.507a1.65 1.65 0 00-1.499 1.643V10a.75.75 0 01-.75.75c-1.443 0-2.457.588-3.207 1.488-.772.928-1.275 2.206-1.59 3.557-.313 1.343-.427 2.696-.461 3.722a21.89 21.89 0 00-.012.983h7.02v-.75a2.25 2.25 0 00-2.249-2.25h-1.25a.75.75 0 110-1.5h1.25a3.747 3.747 0 013.748 3.75v.75h.75a.75.75 0 00.75-.75v-10A.75.75 0 0118.74 9h.506a1.25 1.25 0 001.062-1.909l-.62-1a1.251 1.251 0 00-1.061-.591h-2.386a.75.75 0 01-.75-.75V3.507h.001zM6.474 20.5c-.003-.284-.001-.634.012-1.033.036-1.083.157-2.542.5-4.012.34-1.462.915-2.996 1.899-4.177.872-1.047 2.055-1.801 3.61-1.985V5.15A3.15 3.15 0 0115.641 2c.746 0 1.35.604 1.35 1.35V4h1.636c.95 0 1.834.492 2.335 1.3l.62 1c1.092 1.763-.084 4.02-2.093 4.19v9.26A2.25 2.25 0 0117.242 22H5.795a3.798 3.798 0 01-2.775-6.39l1.135-1.217a3.059 3.059 0 00-.073-4.248L2.969 9.03a.75.75 0 011.06-1.06l1.114 1.114a4.558 4.558 0 01.11 6.332l-1.136 1.217a2.3 2.3 0 001.68 3.867h.677z"/></svg><svg viewBox="0 0 16 10" id="chevron" xmlns="http://www.w3.org/2000/svg"><path d="M13.366.616L8 5.982 2.634.616.866 2.384 8 9.517l7.134-7.133L13.366.616z"/></svg><svg viewBox="0 0 24 24" id="clock" xmlns="http://www.w3.org/2000/svg"><path d="M16.25 13.5h-5a.75.75 0 01-.75-.75v-7a.75.75 0 111.5 0V12h4.25a.75.75 0 110 1.5zM12 0C5.372 0 0 5.373 0 12s5.372 12 12 12c6.627 0 12-5.373 12-12S18.627 0 12 0z"/></svg><svg viewBox="0 0 16 16" id="close" xmlns="http://www.w3.org/2000/svg"><path d="M9.175 8l6.075-6.075A.833.833 0 0014.075.75L8 6.825 1.925.742A.833.833 0 00.75 1.917L6.825 8 .742 14.075a.834.834 0 101.175 1.175L8 9.175l6.075 6.075a.833.833 0 001.175-1.175L9.175 8z"/></svg><svg viewBox="0 0 512 512" id="dog" xmlns="http://www.w3.org/2000/svg"><path d="M179.557 157.956c6.67 0 12.097-8.708 12.097-19.412s-5.427-19.412-12.097-19.412-12.096 8.708-12.096 19.412 5.426 19.412 12.096 19.412zm121.044 0c6.67 0 12.096-8.708 12.096-19.412s-5.426-19.412-12.096-19.412-12.097 8.708-12.097 19.412 5.427 19.412 12.097 19.412z"/><path d="M451.449 324.922a42.916 42.916 0 004.461-19.012c0-15.223-8.247-29.305-21.1-36.946.426-2.088.64-4.227.64-6.404 0-16.749-12.979-30.524-29.408-31.794a42.65 42.65 0 00-31.429-30.934v-51.483a37.688 37.688 0 0016.46-9.661l23.906-23.905c14.721-14.722 14.721-38.675 0-53.396l-50.326-50.325C357.522 3.931 348.04.003 337.955.003s-19.567 3.927-26.698 11.059c-5.25 5.25-8.711 11.867-10.199 18.906a85.155 85.155 0 00-10.874-.707H189.975c-3.637 0-7.272.242-10.874.707-1.487-7.042-4.949-13.662-10.201-18.914C161.76 3.925 152.278 0 142.2 0c-10.071 0-19.55 3.925-26.693 11.057L65.174 61.389c-14.708 14.72-14.708 38.672.003 53.396l23.909 23.899a37.566 37.566 0 0016.458 9.631v51.515a42.626 42.626 0 00-31.43 30.936C57.684 232.032 44.7 245.809 44.7 262.56c0 2.173.215 4.311.643 6.403-12.848 7.639-21.093 21.722-21.093 36.947a42.981 42.981 0 004.46 19.035c-9.316 5.339-15.61 15.373-15.61 26.855 0 8.279 3.222 16.052 9.066 21.883 4.511 4.512 10.178 7.45 16.336 8.557l25.019 73.715C74.899 489.477 106.33 512 141.73 512h196.696c35.4 0 66.83-22.523 78.209-56.046l25.021-73.722c14.421-2.622 25.393-15.266 25.393-30.432 0-8.271-3.216-16.042-9.062-21.89a31.157 31.157 0 00-6.538-4.988zM321.864 21.667c4.298-4.298 10.013-6.665 16.091-6.665s11.793 2.367 16.091 6.665l50.326 50.325c8.873 8.873 8.873 23.31.001 32.183l-23.906 23.905c-5.551 5.551-13.439 7.834-21.095 6.108-7.658-1.727-13.803-7.173-16.436-14.569l-26.421-74.23c-2.929-8.231-.83-17.543 5.349-23.722zm-20.936 23.428a37.251 37.251 0 001.457 5.324l26.421 74.23c4.367 12.271 14.562 21.308 27.268 24.172a38.15 38.15 0 003.54.613v55.143c0 22.367-10.729 43-28.256 55.915.006-.311.023-.621.023-.933v-44.2c0-25.627-19.746-46.717-44.823-48.892-3.786-7.727-10.935-13.512-19.527-15.45V44.26h23.153c3.6 0 7.195.285 10.744.835zM247.58 259.56a7.5 7.5 0 00-15 0c0 9.183-3.579 17.823-10.07 24.323-6.506 6.498-15.147 10.077-24.33 10.077-18.968 0-34.4-15.432-34.4-34.4v-44.2c0-16.383 11.618-30.099 27.046-33.354 1.439 14.229 13.284 25.431 27.786 25.853v5.149c0 11.837 9.63 21.467 21.467 21.467 11.836 0 21.466-9.63 21.466-21.467v-5.149c14.501-.422 26.347-11.623 27.786-25.852 15.431 3.257 27.049 16.972 27.049 33.353v44.2c0 9.183-3.578 17.824-10.069 24.323-6.507 6.498-15.147 10.077-24.33 10.077-18.969 0-34.401-15.432-34.401-34.4zm2.446 37.64a39.06 39.06 0 01-9.951 1.307c-3.382 0-6.707-.457-9.922-1.302a50.132 50.132 0 002.964-2.716 49.845 49.845 0 006.981-8.758 49.762 49.762 0 009.928 11.469zm-30.565-131.894h41.235c7.6 0 13.782 6.183 13.782 13.782s-6.183 13.782-13.782 13.782h-6.651a7.5 7.5 0 00-7.5 7.5v12.636a6.474 6.474 0 01-6.466 6.467 6.474 6.474 0 01-6.467-6.467V200.37a7.5 7.5 0 00-7.5-7.5h-6.65c-7.6 0-13.783-6.183-13.783-13.782s6.183-13.782 13.782-13.782zM252.03 44.26v106.046h-23.907V44.26zM75.786 104.179c-8.867-8.874-8.867-23.314-.002-32.186l50.326-50.325c4.306-4.3 10.021-6.668 16.09-6.668 6.076 0 11.794 2.368 16.097 6.663 6.175 6.176 8.274 15.488 5.347 23.722l-21.39 60.1a7.5 7.5 0 0014.132 5.03l21.391-60.103a37.3 37.3 0 001.453-5.316 70.077 70.077 0 0110.744-.835h23.149v106.758c-8.59 1.939-15.737 7.724-19.523 15.449-25.075 2.172-44.821 23.264-44.821 48.893v44.2c0 .312.018.619.024.93-17.527-12.914-28.258-33.547-28.258-55.912v-55.142a37.625 37.625 0 0020.375-9.229c3.097-2.751 3.377-7.491.626-10.588s-7.492-3.377-10.588-.626c-7.899 7.018-21.754 8.594-31.266-.918zM39.25 305.91c0-11.474 7.198-21.95 17.912-26.069a7.498 7.498 0 004.11-10.161 16.776 16.776 0 01-1.571-7.119c0-9.313 7.577-16.89 16.89-16.89.886 0 1.783.069 2.665.204a7.498 7.498 0 008.607-6.764c.951-10.938 8.401-20.182 18.378-23.818 3.607 28.259 21.306 53.03 47.333 65.476 7.95 16.655 24.955 28.192 44.608 28.192 5.289 0 10.448-.84 15.338-2.432 8.078 4.576 17.181 6.979 26.556 6.979 9.393 0 18.505-2.408 26.582-6.993a49.207 49.207 0 0015.324 2.445c13.185 0 25.59-5.136 34.937-14.47a49.517 49.517 0 009.71-13.735c26.018-12.458 43.704-37.237 47.298-65.501 10.07 3.575 17.398 12.715 18.373 23.86a7.498 7.498 0 008.616 6.758 17.416 17.416 0 012.646-.202c9.313 0 16.891 7.577 16.891 16.89 0 2.495-.526 4.884-1.563 7.101a7.5 7.5 0 004.102 10.18c10.72 4.122 17.922 14.598 17.922 26.069 0 5.322-1.554 10.509-4.387 14.96-.138-.002-.274-.01-.412-.01h-54.269c-2.3-11.921-12.807-20.955-25.389-20.955h-35.104c-12.583 0-23.089 9.034-25.389 20.955H184.198c-2.3-11.921-12.807-20.955-25.389-20.955h-35.104c-12.583 0-23.089 9.034-25.389 20.955H44.05c-.143 0-.284.009-.427.011a27.932 27.932 0 01-4.373-14.961zm328.064 19.858v9.174c0 2.595-2.008 4.824-4.385 4.867-1.208.023-2.357-.432-3.22-1.28s-1.339-1.981-1.339-3.191c0-4.142-3.357-7.5-7.5-7.5s-7.5 3.358-7.5 7.5a4.476 4.476 0 01-4.471 4.471 4.477 4.477 0 01-4.472-4.471c0-4.142-3.357-7.5-7.5-7.5s-7.5 3.358-7.5 7.5a4.44 4.44 0 01-1.339 3.191 4.45 4.45 0 01-3.22 1.28c-2.376-.043-4.384-2.272-4.384-4.867v-9.174c0-5.99 4.873-10.862 10.862-10.862h35.104c5.991 0 10.864 4.872 10.864 10.862zm-197.643 0v9.174c0 2.595-2.008 4.824-4.384 4.867a4.444 4.444 0 01-3.219-1.28 4.437 4.437 0 01-1.339-3.191 7.5 7.5 0 00-15 0c0 2.466-2.006 4.471-4.471 4.471s-4.471-2.006-4.471-4.471a7.5 7.5 0 00-15 0 4.44 4.44 0 01-1.339 3.191 4.481 4.481 0 01-3.22 1.28c-2.376-.043-4.384-2.272-4.384-4.867v-9.174c0-5.99 4.873-10.862 10.862-10.862h35.104c5.988 0 10.861 4.872 10.861 10.862zM436.11 367.74h-46.57c-4.143 0-7.5 3.358-7.5 7.5s3.357 7.5 7.5 7.5h36.104l-23.214 68.393C393.119 478.567 367.398 497 338.427 497H141.73c-28.972 0-54.693-18.433-64.005-45.867L54.512 382.74H359.54c4.143 0 7.5-3.358 7.5-7.5s-3.357-7.5-7.5-7.5H44.05c-4.265 0-8.27-1.656-11.283-4.67A15.812 15.812 0 0128.1 351.8c0-8.789 7.155-15.94 15.95-15.94h53.839c.474 10.342 8.83 18.76 19.064 18.947 4.527.075 8.834-1.366 12.342-4.115 3.303 2.579 7.457 4.118 11.962 4.118s8.66-1.539 11.963-4.118c3.506 2.749 7.809 4.191 12.341 4.115 10.234-.187 18.591-8.604 19.065-18.947h110.906c.474 10.342 8.831 18.76 19.065 18.947a19.44 19.44 0 0012.341-4.115c3.303 2.579 7.457 4.118 11.963 4.118s8.659-1.539 11.962-4.118c3.507 2.749 7.817 4.191 12.341 4.115 10.235-.187 18.592-8.604 19.066-18.947h53.841c4.258 0 8.265 1.658 11.276 4.663a15.843 15.843 0 014.663 11.277c0 8.789-7.151 15.94-15.94 15.94z"/><path d="M450.697 162.817c-16.065 0-29.135 13.07-29.135 29.135s13.069 29.135 29.135 29.135 29.135-13.07 29.135-29.135-13.069-29.135-29.135-29.135zm0 43.27c-7.794 0-14.135-6.341-14.135-14.135s6.341-14.135 14.135-14.135 14.135 6.341 14.135 14.135-6.341 14.135-14.135 14.135zm20.699-139.801c-21.854 0-39.634 17.78-39.634 39.633s17.779 39.633 39.634 39.633c21.854 0 39.633-17.779 39.633-39.633s-17.779-39.633-39.633-39.633zm0 64.267c-13.583 0-24.634-11.05-24.634-24.633s11.051-24.633 24.634-24.633 24.633 11.051 24.633 24.633-11.05 24.633-24.633 24.633zM71.172 161.715c0-19.354-15.746-35.101-35.101-35.101s-35.1 15.747-35.1 35.101 15.746 35.101 35.101 35.101 35.1-15.746 35.1-35.101zm-55.201 0c0-11.083 9.017-20.101 20.101-20.101s20.101 9.017 20.101 20.101-9.017 20.101-20.101 20.101-20.101-9.017-20.101-20.101z"/></svg><svg viewBox="0 0 512.008 512.008" id="hair-dryer" xmlns="http://www.w3.org/2000/svg"><path d="M77.299 56.047L49.652 39.862a7.5 7.5 0 10-7.578 12.946L69.72 68.992c3.513 2.06 8.147.928 10.262-2.684a7.5 7.5 0 00-2.683-10.261zm8.208-18.53A7.5 7.5 0 0096.66 27.486L74.174 2.484a7.5 7.5 0 00-11.153 10.031zM57.58 85.22l-32.809-7.368a7.494 7.494 0 00-8.961 5.674 7.5 7.5 0 005.674 8.961l32.809 7.368a7.487 7.487 0 001.65.185 7.5 7.5 0 001.637-14.82zm430.535 128.565c-12.749-30.144-38.262-52.021-69.998-60.022l-194.141-48.945-54.652-61.632c-6.588-7.432-17.798-8.343-25.52-2.076-14.748 11.963-27.249 26.186-37.155 42.273-11.602 18.844-19.266 39.563-22.78 61.581-1.563 9.794 4.835 19.025 14.565 21.018l80.696 16.513 26.959 27.771a7.5 7.5 0 0010.763-10.447l-24.625-25.366 31.333-54.27 190.888 48.125c27.135 6.841 48.949 25.547 59.85 51.32s9.127 54.455-4.864 78.689c-13.992 24.234-37.944 40.111-65.715 43.558-27.769 3.45-54.877-6.092-74.369-26.171l-91.11-93.853a7.497 7.497 0 00-10.604-.158 7.499 7.499 0 00-.158 10.605l60.664 62.49c-12.129 2.078-22.932 9.439-29.181 20.271-5.576 9.662-7.059 20.916-4.173 31.689 3.299 12.315 12.357 22.463 23.916 27.928l-33.813 58.562c-7.013 12.146-8.876 26.297-5.245 39.843 3.63 13.545 12.317 24.864 24.459 31.871 12.179 7.028 26.374 8.857 39.836 5.25 13.545-3.629 24.867-12.316 31.881-24.464l59.485-103.029a7.5 7.5 0 00-2.745-10.245 7.498 7.498 0 00-10.245 2.745L322.832 478.24c-5.01 8.677-13.098 14.883-22.772 17.475-9.675 2.593-19.779 1.261-28.454-3.751-8.673-5.006-14.878-13.09-17.471-22.765s-1.263-19.782 3.747-28.459l64.187-111.169c19.304 18.146 44.261 27.999 70.464 27.999 4.317 0 8.67-.268 13.035-.81 32.479-4.031 60.493-22.6 76.857-50.943s18.438-61.889 5.69-92.032zm-309.007-46.607l-77.666-15.893a3.483 3.483 0 01-2.761-3.959c3.201-20.058 10.18-38.926 20.741-56.079 9.017-14.645 20.399-27.595 33.832-38.49a3.534 3.534 0 012.232-.796 3.48 3.48 0 012.614 1.175l52.601 59.319zm107.097 194.509l-4.459-2.573c-12.777-7.374-17.171-23.773-9.793-36.557 4.765-8.258 13.655-13.388 23.203-13.388 2.811 0 5.57.446 8.225 1.317l7.767 8zm164.934-74.433c15.618-27.05 5.617-61.207-20.431-76.247-26.52-15.312-61.039-5.912-76.247 20.43-15.389 26.654-6.225 60.858 20.43 76.248 26.321 15.196 60.698 6.503 76.248-20.431zm-83.687-48.318c11.131-19.28 36.349-26.144 55.757-14.939 19.138 11.048 26.051 36.511 14.94 55.757-11.253 19.492-36.268 26.192-55.758 14.94-19.491-11.254-26.192-36.267-14.939-55.758zm-37.463 183.728a22.346 22.346 0 0013.662-10.484 22.347 22.347 0 002.248-17.072 22.35 22.35 0 00-10.482-13.662 22.344 22.344 0 00-17.074-2.248 22.351 22.351 0 00-13.662 10.484c-6.203 10.744-2.508 24.532 8.235 30.734a22.366 22.366 0 0017.073 2.248zm-9.573-15.239c-3.581-2.067-4.813-6.664-2.745-10.245a7.45 7.45 0 014.555-3.495 7.462 7.462 0 015.691.75c1.734 1.002 2.976 2.619 3.494 4.554s.252 3.956-.75 5.691v.001a7.453 7.453 0 01-4.554 3.494 7.457 7.457 0 01-5.691-.75zm95.171-123.377a7.5 7.5 0 00-2.745-10.245l-27.582-15.924c-3.589-2.07-8.176-.843-10.245 2.745a7.5 7.5 0 002.745 10.245l27.582 15.924c3.522 2.036 8.151.88 10.245-2.745zM310.174 457.014l-27.582-15.924a7.498 7.498 0 00-10.245 2.745 7.5 7.5 0 002.745 10.245l27.582 15.924a7.497 7.497 0 0010.245-2.745 7.501 7.501 0 00-2.745-10.245zm82.586-212.127l27.582 15.925c3.523 2.039 8.152.879 10.245-2.745a7.5 7.5 0 00-2.745-10.245l-27.582-15.925a7.5 7.5 0 00-10.245 2.745 7.5 7.5 0 002.745 10.245z"/></svg><svg viewBox="0 0 512.002 512.002" id="hairbrush" xmlns="http://www.w3.org/2000/svg"><path d="M256.001 76.8c4.71 0 8.533-3.814 8.533-8.533s-3.823-8.533-8.533-8.533c-4.71 0-8.533 3.814-8.533 8.533s3.822 8.533 8.533 8.533zm-17.067 25.6a8.53 8.53 0 008.533-8.533 8.53 8.53 0 00-8.533-8.533 8.53 8.53 0 00-8.533 8.533 8.53 8.53 0 008.533 8.533zm34.133 0a8.53 8.53 0 008.533-8.533c0-4.719-3.823-8.533-8.533-8.533s-8.533 3.814-8.533 8.533a8.53 8.53 0 008.533 8.533zm-17.066 8.533c-4.71 0-8.533 3.814-8.533 8.533S251.29 128 256.001 128c4.71 0 8.533-3.814 8.533-8.533s-3.823-8.534-8.533-8.534zm-17.067 25.6c-4.71 0-8.533 3.814-8.533 8.533s3.823 8.533 8.533 8.533c4.71 0 8.533-3.814 8.533-8.533s-3.822-8.533-8.533-8.533zm34.133 17.067c4.71 0 8.533-3.814 8.533-8.533s-3.823-8.533-8.533-8.533-8.533 3.814-8.533 8.533 3.823 8.533 8.533 8.533zm-17.066 25.6c4.71 0 8.533-3.814 8.533-8.533s-3.823-8.533-8.533-8.533c-4.71 0-8.533 3.814-8.533 8.533s3.822 8.533 8.533 8.533zm-17.067 8.533c-4.71 0-8.533 3.814-8.533 8.533s3.823 8.533 8.533 8.533c4.71 0 8.533-3.814 8.533-8.533s-3.822-8.533-8.533-8.533zm34.133 0c-4.71 0-8.533 3.814-8.533 8.533s3.823 8.533 8.533 8.533 8.533-3.814 8.533-8.533-3.822-8.533-8.533-8.533zm17.067-25.6c-4.71 0-8.533 3.814-8.533 8.533s3.823 8.533 8.533 8.533c4.71 0 8.533-3.814 8.533-8.533s-3.822-8.533-8.533-8.533zm0-34.133c4.71 0 8.533-3.814 8.533-8.533s-3.823-8.533-8.533-8.533c-4.71 0-8.533 3.814-8.533 8.533s3.823 8.533 8.533 8.533zm-68.267 0c4.71 0 8.533-3.814 8.533-8.533s-3.823-8.533-8.533-8.533c-4.71 0-8.533 3.814-8.533 8.533s3.823 8.533 8.533 8.533zm0 34.133c-4.71 0-8.533 3.814-8.533 8.533s3.823 8.533 8.533 8.533c4.71 0 8.533-3.814 8.533-8.533s-3.822-8.533-8.533-8.533zm34.134 51.2c-4.71 0-8.533 3.814-8.533 8.533s3.823 8.533 8.533 8.533c4.71 0 8.533-3.814 8.533-8.533s-3.823-8.533-8.533-8.533zm-17.067 25.6c-4.71 0-8.533 3.814-8.533 8.533s3.823 8.533 8.533 8.533c4.71 0 8.533-3.814 8.533-8.533s-3.822-8.533-8.533-8.533zm34.133 0c-4.71 0-8.533 3.814-8.533 8.533s3.823 8.533 8.533 8.533 8.533-3.814 8.533-8.533-3.822-8.533-8.533-8.533z"/><path d="M256.001 34.133c-36.844 0-68.267 58.056-68.267 128s31.422 128 68.267 128 68.267-58.056 68.267-128-31.423-128-68.267-128zm0 238.934c-14.772 0-30.269-17.745-40.292-45.302a8.504 8.504 0 006.159 2.635c4.71 0 8.533-3.814 8.533-8.533s-3.823-8.533-8.533-8.533a8.53 8.53 0 00-8.476 7.57 178.32 178.32 0 01-4.429-17.191 8.522 8.522 0 004.371-7.446c0-4.182-3.004-7.647-6.966-8.383a211.132 211.132 0 01-1.568-25.75c0-2.876.058-5.724.171-8.542 4.631-.092 8.363-3.864 8.363-8.525 0-4.195-3.023-7.668-7.003-8.389 5.991-49.289 28.572-85.478 49.67-85.478 21.097 0 43.679 36.189 49.67 85.478-3.98.721-7.003 4.194-7.003 8.389 0 4.661 3.732 8.433 8.363 8.525.112 2.818.171 5.666.171 8.542 0 8.881-.553 17.499-1.568 25.75-3.961.736-6.966 4.202-6.966 8.383a8.522 8.522 0 004.371 7.446 178.397 178.397 0 01-4.429 17.191 8.53 8.53 0 00-8.476-7.57c-4.71 0-8.533 3.814-8.533 8.533s3.823 8.533 8.533 8.533a8.507 8.507 0 006.159-2.635c-10.023 27.556-25.521 45.302-40.292 45.302z"/><path d="M358.401 162.133C358.401 73.197 313.669 0 256.001 0c-57.668 0-102.4 73.197-102.4 162.133 0 74.454 31.539 138.846 76.8 156.98v12.845a447.967 447.967 0 00-8.533 87.019v57.438c0 18.565 14.052 34.582 32.313 35.538 19.594 1.019 35.954-14.556 35.954-34.088v-58.889c0-29.215-2.858-58.362-8.533-87.019v-12.845c45.26-18.133 76.799-82.525 76.799-156.979zM270.608 304.9a8.533 8.533 0 00-6.074 8.171V332.8l.166 1.674a430.872 430.872 0 018.368 84.505v58.889c0 9.768-8.178 17.555-17.997 17.044-8.886-.465-16.136-8.729-16.136-18.495v-57.438a430.88 430.88 0 018.368-84.505l.166-1.674v-19.729a8.533 8.533 0 00-6.074-8.171c-39.975-12.034-70.727-71.748-70.727-142.766 0-80.723 39.321-145.067 85.333-145.067s85.333 64.343 85.333 145.067c0 71.017-30.751 130.732-70.726 142.766z"/></svg><svg viewBox="0 0 512.001 512.001" id="handshake" xmlns="http://www.w3.org/2000/svg"><path d="M9.699 257.448l40.805 16.098c5.392 2.126 11.271 1.003 15.476-2.521l32.314 20.379 5.542 3.896c-7.03 11.126-5.229 26.33 5.46 35.393 5.873 4.98 13.336 7.105 20.641 6.309.429 7.679 3.921 14.518 9.604 19.335 5.585 4.736 12.876 7.161 20.64 6.314.432 7.676 3.922 14.513 9.605 19.331 5.637 4.78 12.942 7.154 20.653 6.313.403 7.231 3.646 14.29 9.592 19.332 11.486 9.741 28.765 8.328 38.504-3.157l6.484-7.611 10.927 8.064c18.892 13.945 45.594 2.521 48.057-20.658 19.478 7.078 40.16-6.573 40.46-27.537 18.36 3.452 34.652-9.883 35.675-27.571 23.815 6.361 45.356-17.705 34.84-41.237l29.2-18.755c4.181 4.953 11.129 6.824 17.324 4.38l40.805-16.097c7.854-3.098 11.725-12.009 8.626-19.865l-18.65-47.274a7.5 7.5 0 00-9.729-4.224 7.5 7.5 0 00-4.225 9.729l18.649 47.273a.315.315 0 01-.176.408l-40.805 16.097a.314.314 0 01-.407-.176l-51.28-129.988c-.015-.036-.048-.12.004-.239s.137-.152.172-.167l40.806-16.098a.285.285 0 01.24.004c.118.052.151.136.166.172l19.771 50.114a7.5 7.5 0 009.729 4.224 7.5 7.5 0 004.225-9.729l-19.771-50.113c-3.097-7.854-12.009-11.724-19.863-8.625l-40.807 16.098c-7.291 2.876-11.14 10.7-9.184 18.117l-21.875 8.074a42.585 42.585 0 01-21.369 2.105l-22.112-3.505a7.5 7.5 0 00-2.348 14.815l22.112 3.505a57.627 57.627 0 0028.912-2.849l22.073-8.148 42.686 108.201-32.184 20.671-.546-.403a.03.03 0 00-.007-.005l-62.035-45.782c-1.608-1.187-3.606-1.72-5.904-1.33-31.07 5.283-58.907-5.765-79.386-27.148-6.372-6.653-16.768-7.01-23.671-.812-19.867 17.843-47.63 35.242-67.055 16.781-1.93-1.833-1.944-5.219.987-7.111 24.744-15.917 50.377-38.266 71.005-59.134 5.134-5.195 12.518-7.61 19.765-6.461l28.469 4.513a7.495 7.495 0 008.581-6.233 7.5 7.5 0 00-6.233-8.582l-28.469-4.513c-12.004-1.902-24.257 2.11-32.78 10.732a513.68 513.68 0 01-8.39 8.288 107.059 107.059 0 00-29.796-6.011c-29.804-1.674-32.389-1.99-39.157-1.555a34.945 34.945 0 01-15.631-2.62l-13.218-5.531c1.908-7.374-1.935-15.207-9.197-18.071L72.22 98.971c-7.857-3.1-16.767.77-19.865 8.625L1.074 237.583c-3.105 7.872.75 16.759 8.625 19.865zm126.672 60.373c-4.395 5.184-12.188 5.827-17.374 1.431-5.22-4.426-5.812-12.206-1.441-17.361l18.551-21.774c4.291-5.063 12.105-5.897 17.374-1.431 5.196 4.405 5.838 12.177 1.43 17.374l-.005.006zm30.244 25.646c-4.405 5.195-12.174 5.837-17.373 1.43-5.22-4.426-5.812-12.206-1.441-17.361l18.551-21.774c4.607-5.436 13.146-5.911 18.287-.573.034.035.063.074.097.11 4.234 4.503 4.51 11.583.42 16.407zm30.245 25.644c-4.421 5.215-12.198 5.818-17.373 1.43-5.22-4.425-5.813-12.205-1.442-17.36l18.552-21.775c4.407-5.196 12.229-5.796 17.374-1.43 5.184 4.397 5.825 12.19 1.43 17.374l-.005.006zm48.887 3.752c-.031.038-.058.08-.09.117l-18.552 21.775c-4.395 5.185-12.188 5.826-17.373 1.431-5.185-4.396-5.826-12.189-1.442-17.36l18.552-21.775c4.42-5.214 12.204-5.815 17.373-1.43 5.086 4.31 5.865 12.002 1.532 17.242zM116.832 147.146l12.817 5.363a49.987 49.987 0 0022.381 3.751c5.736-.369 7.651-.107 37.354 1.562a92.065 92.065 0 0118.018 2.819c-14.675 13.252-31.155 26.535-47.662 37.135-10.583 6.794-12.151 21.746-2.984 30.458 12.529 11.905 40.548 25.591 87.41-16.496.84-.754 2.076-.744 2.813.027 22.7 23.694 54.876 36.929 89.623 32.046 3.937 2.767-3.686-2.819 59.628 43.908h.001c6.776 5 8.671 14.834 3.366 21.621-5.039 6.447-14.144 7.696-20.723 2.839-8.888-6.56-2.326-1.567-33.571-25.642a7.5 7.5 0 00-9.157 11.882l25.923 19.974c4.466 5.884 3.934 14.387-1.353 19.661-5.198 5.187-13.754 5.677-19.903 1.141-5.945-4.387-1.006-.628-28.272-21.62a7.499 7.499 0 00-10.518 1.368 7.5 7.5 0 001.367 10.518l22.986 17.697c4.341 5.615 4.128 13.691-.612 19.065-5.1 5.782-14.136 6.587-20.574 1.835-10.345-7.634-5.153-3.692-25.075-19.111a7.5 7.5 0 00-9.181 11.862l15.935 12.333c3.625 5.769 2.915 13.325-1.852 18.311-5.203 5.443-13.872 6.046-20.166 1.401l-10.082-7.44 2.316-2.719c4.618-5.444 7.002-12.495 6.392-19.914-.62-7.515-4.191-14.045-9.562-18.601-5.587-4.737-12.884-7.164-20.646-6.322-.408-7.246-3.731-14.345-9.599-19.323-5.566-4.719-12.632-6.987-19.915-6.392-.243.02-.486.043-.727.07-.014-.24-.022-.48-.042-.721-.477-5.799-2.737-11.17-6.452-15.503l-.067-.081a27.331 27.331 0 00-23.675-9.327c-.422-7.531-3.836-14.437-9.612-19.335-11.495-9.745-28.772-8.323-38.505 3.157l-11.303 13.267-6.607-4.644a6.501 6.501 0 00-.312-.208l-33.286-20.993 43.665-110.679zM15.027 243.089l51.28-129.987a.314.314 0 01.407-.177l40.805 16.098c.161.063.24.246.177.406L56.415 259.417a.31.31 0 01-.406.176l-40.805-16.098a.311.311 0 01-.177-.406z"/></svg><svg viewBox="0 0 37 37" id="instagram" xmlns="http://www.w3.org/2000/svg"><path d="M18.5 12.382c-3.369 0-6.118 2.75-6.118 6.118 0 3.369 2.75 6.118 6.118 6.118 3.369 0 6.118-2.75 6.118-6.118 0-3.369-2.75-6.118-6.118-6.118zM36.85 18.5c0-2.534.023-5.044-.12-7.573-.141-2.938-.811-5.545-2.96-7.693-2.152-2.152-4.755-2.818-7.692-2.96-2.534-.143-5.044-.12-7.573-.12-2.534 0-5.045-.023-7.574.12-2.937.142-5.544.812-7.692 2.96C1.086 5.387.42 7.99.279 10.927.135 13.46.158 15.97.158 18.5c0 2.529-.023 5.044.12 7.573.142 2.938.812 5.545 2.96 7.693 2.152 2.153 4.755 2.818 7.692 2.96 2.534.143 5.045.12 7.574.12 2.533 0 5.044.023 7.573-.12 2.937-.142 5.544-.812 7.692-2.96 2.153-2.153 2.819-4.755 2.96-7.693.148-2.529.12-5.04.12-7.573zM18.5 27.914A9.4 9.4 0 019.086 18.5 9.4 9.4 0 0118.5 9.086a9.4 9.4 0 019.414 9.414 9.4 9.4 0 01-9.414 9.414zm9.8-17.015a2.196 2.196 0 01-2.2-2.198c0-1.217.983-2.199 2.2-2.199a2.196 2.196 0 012.031 3.04A2.195 2.195 0 0128.3 10.9z"/></svg><svg viewBox="0 0 32 32" id="location" xmlns="http://www.w3.org/2000/svg"><path d="M16 2A11.013 11.013 0 005 13a10.889 10.889 0 002.216 6.6s.3.395.349.452L16 30l8.439-9.953c.044-.053.345-.447.345-.447l.001-.003A10.885 10.885 0 0027 13 11.013 11.013 0 0016 2zm0 15a4 4 0 110-8 4 4 0 010 8z"/></svg><svg viewBox="0 0 128 128" id="lotion" xmlns="http://www.w3.org/2000/svg"><path d="M100.5 33.373l-4.825-4.4V11.5h5a5.75 5.75 0 000-11.5H79.626a40.886 40.886 0 00-30.775 13.969 1.749 1.749 0 00.164 2.47l6.022 5.267a1.753 1.753 0 001.152.433h.117a1.75 1.75 0 001.2-.594 29.379 29.379 0 0121.172-10.017V28.97l-4.825 4.4a52.61 52.61 0 00-17.112 38.782v27.226a10.324 10.324 0 00-5.049-1.551c-3.546-11.3-14.18-14.438-14.648-14.571a1.75 1.75 0 00-2.123 2.281c.883 2.428-.588 6.876-4.041 12.282h-2.436a10.416 10.416 0 00-10.4 10.405 10.257 10.257 0 00.267 2.336 10.391 10.391 0 00-5.453 16.82 1.75 1.75 0 001.332.62h96.676a6.758 6.758 0 006.75-6.75v-49.1A52.61 52.61 0 00100.5 33.373zm-8.325-5.559h-10V11.5h10zM56.059 17.95l-3.392-2.967A37.393 37.393 0 0179.626 3.5h21.047a2.25 2.25 0 010 4.5H79.626a32.885 32.885 0 00-23.567 9.95zM13.884 120.657a6.928 6.928 0 016.811-6.9 1.75 1.75 0 001.549-2.518 6.82 6.82 0 01-.7-3.017 6.912 6.912 0 016.9-6.905h3.386a1.751 1.751 0 001.459-.783c3.4-5.125 5.192-9.422 5.371-12.831a18.994 18.994 0 0110.008 12.291 1.75 1.75 0 001.7 1.325h.921a6.913 6.913 0 016.9 6.905 6.783 6.783 0 01-.366 2.179H39.1a1.75 1.75 0 000 3.5h19.678a6.884 6.884 0 014.365 10.6H15.057a6.9 6.9 0 01-1.173-3.846zm100.232.591a3.254 3.254 0 01-3.25 3.25h-43.8a10.319 10.319 0 00.278-6.936 1.736 1.736 0 001.145.436h37.375a1.75 1.75 0 001.75-1.75v-44.1a1.75 1.75 0 00-1.75-1.75H68.491a1.749 1.749 0 00-1.75 1.75v43.9a10.405 10.405 0 00-5.431-5.042 10.341 10.341 0 00-1.069-8.062v-30.8a49.1 49.1 0 0115.971-36.185l4.894-4.466H93.25l4.894 4.466a49.1 49.1 0 0115.972 36.193zM70.241 114.5V73.9h33.875v40.6z"/></svg><svg viewBox="0 0 12 10" id="mail" xmlns="http://www.w3.org/2000/svg"><path d="M2 0a2 2 0 00-2 2v.201l6 3.231 6-3.23V2a2 2 0 00-2-2H2zm10 3.337L6.237 6.44a.5.5 0 01-.474 0L0 3.337V8a2 2 0 002 2h8a2 2 0 002-2V3.337z"/></svg><svg viewBox="0 0 30 30" id="phone-icon" xmlns="http://www.w3.org/2000/svg"><path d="M19.06 20.137l2.1-2.1a2.053 2.053 0 012.193-.45l2.56 1.022a2.044 2.044 0 011.274 1.875v4.688a2.035 2.035 0 01-2.137 2.015C7.116 26.073 3.497 10.884 2.812 5.073a2.034 2.034 0 012.035-2.26h4.528a2.025 2.025 0 011.875 1.276l1.022 2.559a2.026 2.026 0 01-.44 2.194l-2.1 2.1s1.209 8.184 9.327 9.196z"/></svg><svg viewBox="0 0 30 30" id="phone-icon-2" xmlns="http://www.w3.org/2000/svg"><path d="M15 0C6.716 0 0 6.716 0 15c0 8.284 6.716 15 15 15 8.284 0 15-6.716 15-15 0-8.284-6.716-15-15-15zM9.61 5.958c.308-.018.588.167.8.495l2.05 3.889c.216.46.094.954-.229 1.283l-.939.94a.46.46 0 00-.097.267c.36 1.394 1.453 2.68 2.417 3.565.964.885 2 2.082 3.345 2.366.167.046.37.063.49-.048l1.09-1.111c.377-.286.922-.424 1.325-.19h.018l3.7 2.184c.544.34.6.998.21 1.399l-2.548 2.528c-.376.386-.876.516-1.362.517-2.149-.065-4.18-1.12-5.847-2.203-2.737-1.991-5.248-4.461-6.824-7.445-.605-1.251-1.315-2.848-1.247-4.244.006-.526.148-1.04.518-1.38l2.55-2.547c.198-.169.395-.253.58-.264z"/></svg><svg viewBox="0 0 512 512" id="scissors" xmlns="http://www.w3.org/2000/svg"><path d="M192.89 341.729c-22.922-7.726-43.655-6.609-61.624 3.315-17.107 9.45-31.835 27.128-43.776 52.541-6.421 13.669-7.22 27.608-2.308 40.309 4.445 11.495 13.175 20.805 24.581 26.215a48.731 48.731 0 0020.837 4.688c18.172-.001 37.761-10.251 50.21-36.244l27.187-56.792c4.349-9.058 3.146-15.975 1.371-20.183-2.67-6.328-8.368-11.117-16.478-13.849zm1.581 27.549l-27.191 56.799c-13.131 27.42-35.121 32.054-51.088 24.481-15.043-7.134-25.068-25.429-15.125-46.595 16.426-34.961 37.304-52.229 63.401-52.229 7.446 0 15.318 1.406 23.632 4.208h.001c3.864 1.302 6.508 3.242 7.446 5.465.839 1.989.478 4.634-1.076 7.871z"/><path d="M192.889 341.729h.001v.001z"/><path d="M470.47 424.932c-1.146-37.38-20.132-75.999-49.551-100.787-19.15-16.135-51.441-34.037-96.56-27.694-15.113 2.13-21.898-1.663-28.911-16.224l32.873-69.887a7.498 7.498 0 00-3.595-9.977 7.503 7.503 0 00-9.98 3.594l-27.661 58.807-23.123-48.298 89.073-186.128 5.657-11.851c1.934 1.945 4.694 5.717 7.195 11.71 3.6 8.621 13.723 40.201-7.113 84.559l-29.509 61.801c-1.784 3.738-.201 8.214 3.537 9.998s8.215.201 10-3.536l29.529-61.844c28.204-60.046 8.719-109.301-9.197-117.778-6.66-3.15-13.463-.839-16.541 5.618l-7.092 14.857-83.855 175.225L172.477 23.38l-7.098-14.9c-3.083-6.452-9.883-8.756-16.535-5.603-17.91 8.484-37.381 57.741-9.156 117.807l27.954 58.608a7.5 7.5 0 0013.539-6.456l-27.936-58.569c-20.854-44.38-10.745-75.959-7.149-84.58 2.498-5.991 5.256-9.766 7.189-11.715l5.656 11.871 122.9 256.701c1.241 2.591 2.53 4.97 3.878 7.143l-37.859 18.935-51.896-108.815c-1.783-3.738-6.26-5.327-9.998-3.541a7.498 7.498 0 00-3.542 9.996l33.377 69.984c-6.748 13.307-13.581 16.771-28.191 14.734-45.119-6.346-77.425 11.567-96.579 27.712-29.406 24.787-48.375 63.39-49.503 100.742-1.138 37.279 30.604 74.391 72.264 84.489 7.139 1.73 14.137 2.579 20.937 2.579 32.265 0 60.019-19.112 76.582-53.825l44.328-92.899 45.02 94.396C317.224 492.89 344.979 512 377.251 512c6.801 0 13.805-.849 20.944-2.58 41.667-10.099 73.414-47.211 72.275-84.488zm-272.696 25.287c-24.174 50.665-64.309 47.04-80.446 43.128-34.443-8.348-61.72-39.506-60.805-69.457 1.003-33.224 17.931-67.606 44.178-89.73 16.817-14.176 45.185-29.904 84.829-24.326 17.234 2.403 28.921-1.578 37.936-13.52l14.047 29.454c.05.113.093.227.149.339.02.039.046.073.066.112l9.605 20.139zm196.887 44.625c-16.137 3.911-56.286 7.541-80.462-43.126l-51.697-108.397a7.017 7.017 0 00-.162-.339l-8.022-16.82 41.603-20.807c7.886 5.999 17.661 7.761 30.53 5.948 39.621-5.569 67.989 10.145 84.802 24.312 26.26 22.126 43.205 56.526 44.225 89.776.914 29.946-26.368 61.103-60.817 69.453z"/><path d="M380.705 346.531c-17.964-9.92-38.698-11.032-61.622-3.304-8.099 2.728-13.79 7.505-16.459 13.816-1.777 4.2-2.986 11.11 1.348 20.181l27.193 56.801c12.462 26.01 32.056 36.265 50.236 36.264a48.746 48.746 0 0020.85-4.694c11.4-5.411 20.123-14.721 24.561-26.215 4.902-12.698 4.097-26.633-2.328-40.294-11.94-25.425-26.668-43.107-43.779-52.555zm15.112 105.514c-15.971 7.582-37.974 2.945-51.124-24.498l-27.189-56.793c-1.546-3.237-1.904-5.884-1.065-7.869.936-2.212 3.575-4.145 7.434-5.445h.001c8.318-2.803 16.192-4.21 23.641-4.21 26.099 0 46.976 17.271 63.392 52.234 9.95 21.156-.06 39.447-15.09 46.581zM254.196 282.271a7.5 7.5 0 007.446-8.477l-.142-1.074a7.501 7.501 0 00-8.413-6.458 7.499 7.499 0 00-6.459 8.412l.141 1.074a7.502 7.502 0 007.427 6.523z"/></svg><svg viewBox="0 0 41 36" id="telegram" xmlns="http://www.w3.org/2000/svg"><path d="M40.881 4.051l-6.187 29.265c-.466 2.065-1.684 2.58-3.413 1.606l-9.426-6.967-4.549 4.388c-.503.505-.924.927-1.894.927l.677-9.63 17.47-15.834c.76-.68-.164-1.056-1.18-.377L10.781 21.07l-9.298-2.919c-2.023-.633-2.06-2.029.42-3.002l36.37-14.054c1.684-.633 3.157.377 2.608 2.956z"/></svg><svg viewBox="0 0 29 33" id="user" xmlns="http://www.w3.org/2000/svg"><path d="M14.5 16.5c4.577 0 8.286-3.693 8.286-8.25S19.076 0 14.5 0C9.923 0 6.214 3.693 6.214 8.25s3.71 8.25 8.286 8.25zm5.8 2.063h-1.081a11.322 11.322 0 01-4.719 1.03c-1.683 0-3.275-.373-4.719-1.03H8.7c-4.803 0-8.7 3.88-8.7 8.662v2.681A3.101 3.101 0 003.107 33h22.786A3.101 3.101 0 0029 29.906v-2.681c0-4.782-3.897-8.663-8.7-8.663z"/></svg><svg viewBox="0 0 47 47" id="whatsapp" xmlns="http://www.w3.org/2000/svg"><path d="M24.969 44.063c-3.795 0-7.36-.919-10.695-2.754L0 47l5.691-14.274c-1.836-3.336-2.753-6.9-2.753-10.695 0-2.998.58-5.852 1.744-8.56 1.162-2.708 2.73-5.049 4.704-7.022 1.974-1.974 4.315-3.542 7.023-4.705A21.47 21.47 0 0124.969 0c2.998 0 5.852.581 8.56 1.744s5.049 2.731 7.022 4.705c1.974 1.973 3.542 4.314 4.705 7.022A21.47 21.47 0 0147 22.031a21.47 21.47 0 01-1.744 8.56c-1.163 2.708-2.731 5.05-4.705 7.023-1.973 1.973-4.314 3.542-7.022 4.704a21.47 21.47 0 01-8.56 1.745zm7.343-17.626h-2.937l-1.652 1.47c-1.377-.368-3.068-1.554-5.072-3.558-2.004-2.004-3.19-3.695-3.557-5.072l1.468-1.652v-2.938c0-.52-.183-1.04-.55-1.56-.367-.52-.773-.895-1.217-1.125-.443-.23-.757-.252-.94-.068l-2.158 2.157c-1.193 1.193-1.369 3.052-.528 5.577.842 2.524 2.448 4.972 4.82 7.343 2.371 2.372 4.82 3.978 7.343 4.82 2.525.841 4.384.665 5.577-.528l2.157-2.158c.184-.183.161-.497-.068-.94-.23-.444-.605-.85-1.125-1.217-.52-.367-1.04-.55-1.56-.55z"/></svg></svg>