<svg viewBox="0 0 47 47" xmlns="http://www.w3.org/2000/svg" xmlns:xlink="http://www.w3.org/1999/xlink"><style>:root&gt;svg{display:none}:root&gt;svg:target{display:block}</style><svg viewBox="0 0 24 24" id="cat" xmlns="http://www.w3.org/2000/svg"><path d="M15.492 3.507a1.65 1.65 0 00-1.499 1.643V10a.75.75 0 01-.75.75c-1.443 0-2.457.588-3.207 1.488-.772.928-1.275 2.206-1.59 3.557-.313 1.343-.427 2.696-.461 3.722a21.89 21.89 0 00-.012.983h7.02v-.75a2.25 2.25 0 00-2.249-2.25h-1.25a.75.75 0 110-1.5h1.25a3.747 3.747 0 013.748 3.75v.75h.75a.75.75 0 00.75-.75v-10A.75.75 0 0118.74 9h.506a1.25 1.25 0 001.062-1.909l-.62-1a1.251 1.251 0 00-1.061-.591h-2.386a.75.75 0 01-.75-.75V3.507h.001zM6.474 20.5c-.003-.284-.001-.634.012-1.033.036-1.083.157-2.542.5-4.012.34-1.462.915-2.996 1.899-4.177.872-1.047 2.055-1.801 3.61-1.985V5.15A3.15 3.15 0 0115.641 2c.746 0 1.35.604 1.35 1.35V4h1.636c.95 0 1.834.492 2.335 1.3l.62 1c1.092 1.763-.084 4.02-2.093 4.19v9.26A2.25 2.25 0 0117.242 22H5.795a3.798 3.798 0 01-2.775-6.39l1.135-1.217a3.059 3.059 0 00-.073-4.248L2.969 9.03a.75.75 0 011.06-1.06l1.114 1.114a4.558 4.558 0 01.11 6.332l-1.136 1.217a2.3 2.3 0 001.68 3.867h.677z"/></svg><svg viewBox="0 0 16 10" id="chevron" xmlns="http://www.w3.org/2000/svg"><path d="M13.366.616L8 5.982 2.634.616.866 2.384 8 9.517l7.134-7.133L13.366.616z"/></svg><svg viewBox="0 0 24 24" id="clock" xmlns="http://www.w3.org/2000/svg"><path d="M16.25 13.5h-5a.75.75 0 01-.75-.75v-7a.75.75 0 111.5 0V12h4.25a.75.75 0 110 1.5zM12 0C5.372 0 0 5.373 0 12s5.372 12 12 12c6.627 0 12-5.373 12-12S18.627 0 12 0z"/></svg><svg viewBox="0 0 20 20" id="dog" xmlns="http://www.w3.org/2000/svg"><path d="M12.25 0h3.185c.509 0 1.007.141 1.44.408l2.768 1.703A.75.75 0 0120 2.75v1.5a2.25 2.25 0 01-2.25 2.25h-.25v9.047c.997.134 1.695.555 2.095 1.275.223.403.318.84.362 1.243.043.391.043.8.043 1.16v.025a.75.75 0 01-.75.75H4.833a3.833 3.833 0 01-1.97-7.123.75.75 0 11.772 1.287A2.333 2.333 0 004.833 18.5c.319 0 .517-.083.649-.176.139-.098.248-.238.331-.407.105-.216.168-.45.187-.69v-.035l.004-.143a14.2 14.2 0 01.26-2.187c.26-1.291.797-2.968 1.952-4.139.848-.86 1.309-2.119 1.547-3.364C10 6.13 10 5.008 10 4.5V2.25A2.25 2.25 0 0112.25 0zm-5.5 17.25l.75.026v.006l-.001.01-.002.028a3.42 3.42 0 01-.05.38c-.039.213-.112.5-.25.8h7.25c-.09-.494-.34-1.006-1.013-1.32a1.739 1.739 0 00-.482-.132 4.687 4.687 0 00-.702-.055l-.283.004-.141.002h-.06a.75.75 0 11-.028-1.499l.062-.001.143-.002.307-.004c.235 0 .495.016.75.047v-2.287a.75.75 0 011.5 0v2.804c1.065.682 1.374 1.703 1.463 2.443h2.524a4.875 4.875 0 00-.021-.27c-.033-.301-.094-.52-.183-.68-.13-.234-.433-.55-1.533-.55a.75.75 0 01-.75-.75V5.75a.75.75 0 01.75-.75h1a.75.75 0 00.75-.75V3.17l-2.411-1.485a1.247 1.247 0 00-.654-.185h-3.186a.75.75 0 00-.749.75v2.232a.923.923 0 00.205.554c.101.114.26.214.545.214.287 0 .453-.101.556-.219.132-.164.2-.37.194-.581a.75.75 0 011.5 0c0 .554-.177 1.125-.566 1.569-.4.457-.984.731-1.684.731a2.34 2.34 0 01-.855-.154c-.04.35-.092.699-.158 1.045-.262 1.366-.801 2.968-1.953 4.136-.845.856-1.308 2.18-1.549 3.38-.134.68-.213 1.368-.235 2.06v.059l-.75-.026zm8.5 2.75v-.75.75z"/></svg><svg viewBox="0 0 37 37" id="instagram" xmlns="http://www.w3.org/2000/svg"><path d="M18.5 12.382c-3.369 0-6.118 2.75-6.118 6.118 0 3.369 2.75 6.118 6.118 6.118 3.369 0 6.118-2.75 6.118-6.118 0-3.369-2.75-6.118-6.118-6.118zM36.85 18.5c0-2.534.023-5.044-.12-7.573-.141-2.938-.811-5.545-2.96-7.693-2.152-2.152-4.755-2.818-7.692-2.96-2.534-.143-5.044-.12-7.573-.12-2.534 0-5.045-.023-7.574.12-2.937.142-5.544.812-7.692 2.96C1.086 5.387.42 7.99.279 10.927.135 13.46.158 15.97.158 18.5c0 2.529-.023 5.044.12 7.573.142 2.938.812 5.545 2.96 7.693 2.152 2.153 4.755 2.818 7.692 2.96 2.534.143 5.045.12 7.574.12 2.533 0 5.044.023 7.573-.12 2.937-.142 5.544-.812 7.692-2.96 2.153-2.153 2.819-4.755 2.96-7.693.148-2.529.12-5.04.12-7.573zM18.5 27.914A9.4 9.4 0 019.086 18.5 9.4 9.4 0 0118.5 9.086a9.4 9.4 0 019.414 9.414 9.4 9.4 0 01-9.414 9.414zm9.8-17.015a2.196 2.196 0 01-2.2-2.198c0-1.217.983-2.199 2.2-2.199a2.196 2.196 0 012.031 3.04A2.195 2.195 0 0128.3 10.9z"/></svg><svg viewBox="0 0 32 32" id="location" xmlns="http://www.w3.org/2000/svg"><path d="M16 2A11.013 11.013 0 005 13a10.889 10.889 0 002.216 6.6s.3.395.349.452L16 30l8.439-9.953c.044-.053.345-.447.345-.447l.001-.003A10.885 10.885 0 0027 13 11.013 11.013 0 0016 2zm0 15a4 4 0 110-8 4 4 0 010 8z"/></svg><svg viewBox="0 0 12 10" id="mail" xmlns="http://www.w3.org/2000/svg"><path d="M2 0a2 2 0 00-2 2v.201l6 3.231 6-3.23V2a2 2 0 00-2-2H2zm10 3.337L6.237 6.44a.5.5 0 01-.474 0L0 3.337V8a2 2 0 002 2h8a2 2 0 002-2V3.337z"/></svg><svg viewBox="0 0 30 30" id="phone-icon" xmlns="http://www.w3.org/2000/svg"><path d="M19.06 20.137l2.1-2.1a2.053 2.053 0 012.193-.45l2.56 1.022a2.044 2.044 0 011.274 1.875v4.688a2.035 2.035 0 01-2.137 2.015C7.116 26.073 3.497 10.884 2.812 5.073a2.034 2.034 0 012.035-2.26h4.528a2.025 2.025 0 011.875 1.276l1.022 2.559a2.026 2.026 0 01-.44 2.194l-2.1 2.1s1.209 8.184 9.327 9.196z"/></svg><svg viewBox="0 0 30 30" id="phone-icon-2" xmlns="http://www.w3.org/2000/svg"><path d="M15 0C6.716 0 0 6.716 0 15c0 8.284 6.716 15 15 15 8.284 0 15-6.716 15-15 0-8.284-6.716-15-15-15zM9.61 5.958c.308-.018.588.167.8.495l2.05 3.889c.216.46.094.954-.229 1.283l-.939.94a.46.46 0 00-.097.267c.36 1.394 1.453 2.68 2.417 3.565.964.885 2 2.082 3.345 2.366.167.046.37.063.49-.048l1.09-1.111c.377-.286.922-.424 1.325-.19h.018l3.7 2.184c.544.34.6.998.21 1.399l-2.548 2.528c-.376.386-.876.516-1.362.517-2.149-.065-4.18-1.12-5.847-2.203-2.737-1.991-5.248-4.461-6.824-7.445-.605-1.251-1.315-2.848-1.247-4.244.006-.526.148-1.04.518-1.38l2.55-2.547c.198-.169.395-.253.58-.264z"/></svg><svg viewBox="0 0 41 36" id="telegram" xmlns="http://www.w3.org/2000/svg"><path d="M40.881 4.051l-6.187 29.265c-.466 2.065-1.684 2.58-3.413 1.606l-9.426-6.967-4.549 4.388c-.503.505-.924.927-1.894.927l.677-9.63 17.47-15.834c.76-.68-.164-1.056-1.18-.377L10.781 21.07l-9.298-2.919c-2.023-.633-2.06-2.029.42-3.002l36.37-14.054c1.684-.633 3.157.377 2.608 2.956z"/></svg><svg viewBox="0 0 47 47" id="whatsapp" xmlns="http://www.w3.org/2000/svg"><path d="M24.969 44.063c-3.795 0-7.36-.919-10.695-2.754L0 47l5.691-14.274c-1.836-3.336-2.753-6.9-2.753-10.695 0-2.998.58-5.852 1.744-8.56 1.162-2.708 2.73-5.049 4.704-7.022 1.974-1.974 4.315-3.542 7.023-4.705A21.47 21.47 0 0124.969 0c2.998 0 5.852.581 8.56 1.744s5.049 2.731 7.022 4.705c1.974 1.973 3.542 4.314 4.705 7.022A21.47 21.47 0 0147 22.031a21.47 21.47 0 01-1.744 8.56c-1.163 2.708-2.731 5.05-4.705 7.023-1.973 1.973-4.314 3.542-7.022 4.704a21.47 21.47 0 01-8.56 1.745zm7.343-17.626h-2.937l-1.652 1.47c-1.377-.368-3.068-1.554-5.072-3.558-2.004-2.004-3.19-3.695-3.557-5.072l1.468-1.652v-2.938c0-.52-.183-1.04-.55-1.56-.367-.52-.773-.895-1.217-1.125-.443-.23-.757-.252-.94-.068l-2.158 2.157c-1.193 1.193-1.369 3.052-.528 5.577.842 2.524 2.448 4.972 4.82 7.343 2.371 2.372 4.82 3.978 7.343 4.82 2.525.841 4.384.665 5.577-.528l2.157-2.158c.184-.183.161-.497-.068-.94-.23-.444-.605-.85-1.125-1.217-.52-.367-1.04-.55-1.56-.55z"/></svg></svg>