<svg width="26" height="28" fill="none" xmlns="http://www.w3.org/2000/svg"><path d="M16.813 2.75a.937.937 0 00-.938.938v1.874a.938.938 0 001.875 0 .938.938 0 011.875 0 2.812 2.812 0 01-3.9 2.596 15.102 15.102 0 01-1.142 4.306c-.77 1.761-1.783 3.017-2.696 4.035-.653.73-1.075 1.776-1.324 3.021-.25 1.238-.313 2.59-.313 3.855 0 .568-.206 1.254-.581 1.875h7.922a2.821 2.821 0 00-2.654-1.875H14a.937.937 0 110-1.875h.938c.32 0 .633.032.937.094v-2.907a.938.938 0 011.875 0v3.75a4.687 4.687 0 011.781 2.813h3.685a2.812 2.812 0 00-2.654-1.875.937.937 0 01-.937-.938V9.313a.938.938 0 01.938-.937h1.875a.937.937 0 00.937-.938v-1.75a.937.937 0 00-.456-.805l-3.332-1.999a.938.938 0 00-.481-.133h-2.294zM6.5 25.25c.589 0 1.042-.285 1.378-.703.356-.448.497-.95.497-1.172 0-1.313.066-2.807.349-4.224.283-1.407.8-2.822 1.764-3.9.857-.957 1.721-2.044 2.381-3.542C13.524 10.214 14 8.259 14 5.563V3.688A2.813 2.813 0 0116.813.874h2.293c.51 0 1.01.139 1.447.401l3.332 1.999a2.812 2.812 0 011.365 2.411v1.752a2.812 2.812 0 01-2.813 2.812H21.5v11.344a4.687 4.687 0 013.75 4.593.938.938 0 01-.938.938H6.032a5.156 5.156 0 01-2.866-9.444.939.939 0 111.043 1.558A3.281 3.281 0 006.03 25.25h.47z" fill="#000"/></svg>