<svg id="Capa_1" height="512" width="512" xmlns="http://www.w3.org/2000/svg"><path d="M179.557 157.956c6.67 0 12.097-8.708 12.097-19.412s-5.427-19.412-12.097-19.412-12.096 8.708-12.096 19.412 5.426 19.412 12.096 19.412zm121.044 0c6.67 0 12.096-8.708 12.096-19.412s-5.426-19.412-12.096-19.412-12.097 8.708-12.097 19.412 5.427 19.412 12.097 19.412z"/><path d="M451.449 324.922a42.916 42.916 0 004.461-19.012c0-15.223-8.247-29.305-21.1-36.946.426-2.088.64-4.227.64-6.404 0-16.749-12.979-30.524-29.408-31.794a42.65 42.65 0 00-31.429-30.934v-51.483a37.688 37.688 0 0016.46-9.661l23.906-23.905c14.721-14.722 14.721-38.675 0-53.396l-50.326-50.325C357.522 3.931 348.04.003 337.955.003s-19.567 3.927-26.698 11.059c-5.25 5.25-8.711 11.867-10.199 18.906a85.155 85.155 0 00-10.874-.707H189.975c-3.637 0-7.272.242-10.874.707-1.487-7.042-4.949-13.662-10.201-18.914C161.76 3.925 152.278 0 142.2 0c-10.071 0-19.55 3.925-26.693 11.057L65.174 61.389c-14.708 14.72-14.708 38.672.003 53.396l23.909 23.899a37.566 37.566 0 0016.458 9.631v51.515a42.626 42.626 0 00-31.43 30.936C57.684 232.032 44.7 245.809 44.7 262.56c0 2.173.215 4.311.643 6.403-12.848 7.639-21.093 21.722-21.093 36.947a42.981 42.981 0 004.46 19.035c-9.316 5.339-15.61 15.373-15.61 26.855 0 8.279 3.222 16.052 9.066 21.883 4.511 4.512 10.178 7.45 16.336 8.557l25.019 73.715C74.899 489.477 106.33 512 141.73 512h196.696c35.4 0 66.83-22.523 78.209-56.046l25.021-73.722c14.421-2.622 25.393-15.266 25.393-30.432 0-8.271-3.216-16.042-9.062-21.89a31.157 31.157 0 00-6.538-4.988zM321.864 21.667c4.298-4.298 10.013-6.665 16.091-6.665s11.793 2.367 16.091 6.665l50.326 50.325c8.873 8.873 8.873 23.31.001 32.183l-23.906 23.905c-5.551 5.551-13.439 7.834-21.095 6.108-7.658-1.727-13.803-7.173-16.436-14.569l-26.421-74.23c-2.929-8.231-.83-17.543 5.349-23.722zm-20.936 23.428a37.251 37.251 0 001.457 5.324l26.421 74.23c4.367 12.271 14.562 21.308 27.268 24.172a38.15 38.15 0 003.54.613v55.143c0 22.367-10.729 43-28.256 55.915.006-.311.023-.621.023-.933v-44.2c0-25.627-19.746-46.717-44.823-48.892-3.786-7.727-10.935-13.512-19.527-15.45V44.26h23.153c3.6 0 7.195.285 10.744.835zM247.58 259.56a7.5 7.5 0 00-15 0c0 9.183-3.579 17.823-10.07 24.323-6.506 6.498-15.147 10.077-24.33 10.077-18.968 0-34.4-15.432-34.4-34.4v-44.2c0-16.383 11.618-30.099 27.046-33.354 1.439 14.229 13.284 25.431 27.786 25.853v5.149c0 11.837 9.63 21.467 21.467 21.467 11.836 0 21.466-9.63 21.466-21.467v-5.149c14.501-.422 26.347-11.623 27.786-25.852 15.431 3.257 27.049 16.972 27.049 33.353v44.2c0 9.183-3.578 17.824-10.069 24.323-6.507 6.498-15.147 10.077-24.33 10.077-18.969 0-34.401-15.432-34.401-34.4zm2.446 37.64a39.06 39.06 0 01-9.951 1.307c-3.382 0-6.707-.457-9.922-1.302a50.132 50.132 0 002.964-2.716 49.845 49.845 0 006.981-8.758 49.762 49.762 0 009.928 11.469zm-30.565-131.894h41.235c7.6 0 13.782 6.183 13.782 13.782s-6.183 13.782-13.782 13.782h-6.651a7.5 7.5 0 00-7.5 7.5v12.636a6.474 6.474 0 01-6.466 6.467 6.474 6.474 0 01-6.467-6.467V200.37a7.5 7.5 0 00-7.5-7.5h-6.65c-7.6 0-13.783-6.183-13.783-13.782s6.183-13.782 13.782-13.782zM252.03 44.26v106.046h-23.907V44.26zM75.786 104.179c-8.867-8.874-8.867-23.314-.002-32.186l50.326-50.325c4.306-4.3 10.021-6.668 16.09-6.668 6.076 0 11.794 2.368 16.097 6.663 6.175 6.176 8.274 15.488 5.347 23.722l-21.39 60.1a7.5 7.5 0 0014.132 5.03l21.391-60.103a37.3 37.3 0 001.453-5.316 70.077 70.077 0 0110.744-.835h23.149v106.758c-8.59 1.939-15.737 7.724-19.523 15.449-25.075 2.172-44.821 23.264-44.821 48.893v44.2c0 .312.018.619.024.93-17.527-12.914-28.258-33.547-28.258-55.912v-55.142a37.625 37.625 0 0020.375-9.229c3.097-2.751 3.377-7.491.626-10.588s-7.492-3.377-10.588-.626c-7.899 7.018-21.754 8.594-31.266-.918zM39.25 305.91c0-11.474 7.198-21.95 17.912-26.069a7.498 7.498 0 004.11-10.161 16.776 16.776 0 01-1.571-7.119c0-9.313 7.577-16.89 16.89-16.89.886 0 1.783.069 2.665.204a7.498 7.498 0 008.607-6.764c.951-10.938 8.401-20.182 18.378-23.818 3.607 28.259 21.306 53.03 47.333 65.476 7.95 16.655 24.955 28.192 44.608 28.192 5.289 0 10.448-.84 15.338-2.432 8.078 4.576 17.181 6.979 26.556 6.979 9.393 0 18.505-2.408 26.582-6.993a49.207 49.207 0 0015.324 2.445c13.185 0 25.59-5.136 34.937-14.47a49.517 49.517 0 009.71-13.735c26.018-12.458 43.704-37.237 47.298-65.501 10.07 3.575 17.398 12.715 18.373 23.86a7.498 7.498 0 008.616 6.758 17.416 17.416 0 012.646-.202c9.313 0 16.891 7.577 16.891 16.89 0 2.495-.526 4.884-1.563 7.101a7.5 7.5 0 004.102 10.18c10.72 4.122 17.922 14.598 17.922 26.069 0 5.322-1.554 10.509-4.387 14.96-.138-.002-.274-.01-.412-.01h-54.269c-2.3-11.921-12.807-20.955-25.389-20.955h-35.104c-12.583 0-23.089 9.034-25.389 20.955H184.198c-2.3-11.921-12.807-20.955-25.389-20.955h-35.104c-12.583 0-23.089 9.034-25.389 20.955H44.05c-.143 0-.284.009-.427.011a27.932 27.932 0 01-4.373-14.961zm328.064 19.858v9.174c0 2.595-2.008 4.824-4.385 4.867-1.208.023-2.357-.432-3.22-1.28s-1.339-1.981-1.339-3.191c0-4.142-3.357-7.5-7.5-7.5s-7.5 3.358-7.5 7.5a4.476 4.476 0 01-4.471 4.471 4.477 4.477 0 01-4.472-4.471c0-4.142-3.357-7.5-7.5-7.5s-7.5 3.358-7.5 7.5a4.44 4.44 0 01-1.339 3.191 4.45 4.45 0 01-3.22 1.28c-2.376-.043-4.384-2.272-4.384-4.867v-9.174c0-5.99 4.873-10.862 10.862-10.862h35.104c5.991 0 10.864 4.872 10.864 10.862zm-197.643 0v9.174c0 2.595-2.008 4.824-4.384 4.867a4.444 4.444 0 01-3.219-1.28 4.437 4.437 0 01-1.339-3.191 7.5 7.5 0 00-15 0c0 2.466-2.006 4.471-4.471 4.471s-4.471-2.006-4.471-4.471a7.5 7.5 0 00-15 0 4.44 4.44 0 01-1.339 3.191 4.481 4.481 0 01-3.22 1.28c-2.376-.043-4.384-2.272-4.384-4.867v-9.174c0-5.99 4.873-10.862 10.862-10.862h35.104c5.988 0 10.861 4.872 10.861 10.862zM436.11 367.74h-46.57c-4.143 0-7.5 3.358-7.5 7.5s3.357 7.5 7.5 7.5h36.104l-23.214 68.393C393.119 478.567 367.398 497 338.427 497H141.73c-28.972 0-54.693-18.433-64.005-45.867L54.512 382.74H359.54c4.143 0 7.5-3.358 7.5-7.5s-3.357-7.5-7.5-7.5H44.05c-4.265 0-8.27-1.656-11.283-4.67A15.812 15.812 0 0128.1 351.8c0-8.789 7.155-15.94 15.95-15.94h53.839c.474 10.342 8.83 18.76 19.064 18.947 4.527.075 8.834-1.366 12.342-4.115 3.303 2.579 7.457 4.118 11.962 4.118s8.66-1.539 11.963-4.118c3.506 2.749 7.809 4.191 12.341 4.115 10.234-.187 18.591-8.604 19.065-18.947h110.906c.474 10.342 8.831 18.76 19.065 18.947a19.44 19.44 0 0012.341-4.115c3.303 2.579 7.457 4.118 11.963 4.118s8.659-1.539 11.962-4.118c3.507 2.749 7.817 4.191 12.341 4.115 10.235-.187 18.592-8.604 19.066-18.947h53.841c4.258 0 8.265 1.658 11.276 4.663a15.843 15.843 0 014.663 11.277c0 8.789-7.151 15.94-15.94 15.94z"/><path d="M450.697 162.817c-16.065 0-29.135 13.07-29.135 29.135s13.069 29.135 29.135 29.135 29.135-13.07 29.135-29.135-13.069-29.135-29.135-29.135zm0 43.27c-7.794 0-14.135-6.341-14.135-14.135s6.341-14.135 14.135-14.135 14.135 6.341 14.135 14.135-6.341 14.135-14.135 14.135zm20.699-139.801c-21.854 0-39.634 17.78-39.634 39.633s17.779 39.633 39.634 39.633c21.854 0 39.633-17.779 39.633-39.633s-17.779-39.633-39.633-39.633zm0 64.267c-13.583 0-24.634-11.05-24.634-24.633s11.051-24.633 24.634-24.633 24.633 11.051 24.633 24.633-11.05 24.633-24.633 24.633zM71.172 161.715c0-19.354-15.746-35.101-35.101-35.101s-35.1 15.747-35.1 35.101 15.746 35.101 35.101 35.101 35.1-15.746 35.1-35.101zm-55.201 0c0-11.083 9.017-20.101 20.101-20.101s20.101 9.017 20.101 20.101-9.017 20.101-20.101 20.101-20.101-9.017-20.101-20.101z"/></svg>