<svg width="20" height="20" fill="none" xmlns="http://www.w3.org/2000/svg"><path d="M12.25 0h3.185c.509 0 1.007.141 1.44.408l2.768 1.703A.75.75 0 0120 2.75v1.5a2.25 2.25 0 01-2.25 2.25h-.25v9.047c.997.134 1.695.555 2.095 1.275.223.403.318.84.362 1.243.043.391.043.8.043 1.16v.025a.75.75 0 01-.75.75H4.833a3.833 3.833 0 01-1.97-7.123.75.75 0 11.772 1.287A2.333 2.333 0 004.833 18.5c.319 0 .517-.083.649-.176.139-.098.248-.238.331-.407.105-.216.168-.45.187-.69v-.035l.004-.143a14.2 14.2 0 01.26-2.187c.26-1.291.797-2.968 1.952-4.139.848-.86 1.309-2.119 1.547-3.364C10 6.13 10 5.008 10 4.5V2.25A2.25 2.25 0 0112.25 0zm-5.5 17.25l.75.026v.006l-.001.01-.002.028a3.42 3.42 0 01-.05.38c-.039.213-.112.5-.25.8h7.25c-.09-.494-.34-1.006-1.013-1.32a1.739 1.739 0 00-.482-.132 4.687 4.687 0 00-.702-.055l-.283.004-.141.002h-.06a.75.75 0 11-.028-1.499l.062-.001.143-.002.307-.004c.235 0 .495.016.75.047v-2.287a.75.75 0 011.5 0v2.804c1.065.682 1.374 1.703 1.463 2.443h2.524a4.875 4.875 0 00-.021-.27c-.033-.301-.094-.52-.183-.68-.13-.234-.433-.55-1.533-.55a.75.75 0 01-.75-.75V5.75a.75.75 0 01.75-.75h1a.75.75 0 00.75-.75V3.17l-2.411-1.485a1.247 1.247 0 00-.654-.185h-3.186a.75.75 0 00-.749.75v2.232a.923.923 0 00.205.554c.101.114.26.214.545.214.287 0 .453-.101.556-.219.132-.164.2-.37.194-.581a.75.75 0 011.5 0c0 .554-.177 1.125-.566 1.569-.4.457-.984.731-1.684.731a2.34 2.34 0 01-.855-.154c-.04.35-.092.699-.158 1.045-.262 1.366-.801 2.968-1.953 4.136-.845.856-1.308 2.18-1.549 3.38-.134.68-.213 1.368-.235 2.06v.059l-.75-.026zm8.5 2.75v-.75.75z" fill="#000"/></svg>