<svg id="Capa_1" height="512" viewBox="0 0 512.008 512.008" width="512" xmlns="http://www.w3.org/2000/svg"><path d="M77.299 56.047L49.652 39.862a7.5 7.5 0 10-7.578 12.946L69.72 68.992c3.513 2.06 8.147.928 10.262-2.684a7.5 7.5 0 00-2.683-10.261zm8.208-18.53A7.5 7.5 0 0096.66 27.486L74.174 2.484a7.5 7.5 0 00-11.153 10.031zM57.58 85.22l-32.809-7.368a7.494 7.494 0 00-8.961 5.674 7.5 7.5 0 005.674 8.961l32.809 7.368a7.487 7.487 0 001.65.185 7.5 7.5 0 001.637-14.82zm430.535 128.565c-12.749-30.144-38.262-52.021-69.998-60.022l-194.141-48.945-54.652-61.632c-6.588-7.432-17.798-8.343-25.52-2.076-14.748 11.963-27.249 26.186-37.155 42.273-11.602 18.844-19.266 39.563-22.78 61.581-1.563 9.794 4.835 19.025 14.565 21.018l80.696 16.513 26.959 27.771a7.5 7.5 0 0010.763-10.447l-24.625-25.366 31.333-54.27 190.888 48.125c27.135 6.841 48.949 25.547 59.85 51.32s9.127 54.455-4.864 78.689c-13.992 24.234-37.944 40.111-65.715 43.558-27.769 3.45-54.877-6.092-74.369-26.171l-91.11-93.853a7.497 7.497 0 00-10.604-.158 7.499 7.499 0 00-.158 10.605l60.664 62.49c-12.129 2.078-22.932 9.439-29.181 20.271-5.576 9.662-7.059 20.916-4.173 31.689 3.299 12.315 12.357 22.463 23.916 27.928l-33.813 58.562c-7.013 12.146-8.876 26.297-5.245 39.843 3.63 13.545 12.317 24.864 24.459 31.871 12.179 7.028 26.374 8.857 39.836 5.25 13.545-3.629 24.867-12.316 31.881-24.464l59.485-103.029a7.5 7.5 0 00-2.745-10.245 7.498 7.498 0 00-10.245 2.745L322.832 478.24c-5.01 8.677-13.098 14.883-22.772 17.475-9.675 2.593-19.779 1.261-28.454-3.751-8.673-5.006-14.878-13.09-17.471-22.765s-1.263-19.782 3.747-28.459l64.187-111.169c19.304 18.146 44.261 27.999 70.464 27.999 4.317 0 8.67-.268 13.035-.81 32.479-4.031 60.493-22.6 76.857-50.943s18.438-61.889 5.69-92.032zm-309.007-46.607l-77.666-15.893a3.483 3.483 0 01-2.761-3.959c3.201-20.058 10.18-38.926 20.741-56.079 9.017-14.645 20.399-27.595 33.832-38.49a3.534 3.534 0 012.232-.796 3.48 3.48 0 012.614 1.175l52.601 59.319zm107.097 194.509l-4.459-2.573c-12.777-7.374-17.171-23.773-9.793-36.557 4.765-8.258 13.655-13.388 23.203-13.388 2.811 0 5.57.446 8.225 1.317l7.767 8zm164.934-74.433c15.618-27.05 5.617-61.207-20.431-76.247-26.52-15.312-61.039-5.912-76.247 20.43-15.389 26.654-6.225 60.858 20.43 76.248 26.321 15.196 60.698 6.503 76.248-20.431zm-83.687-48.318c11.131-19.28 36.349-26.144 55.757-14.939 19.138 11.048 26.051 36.511 14.94 55.757-11.253 19.492-36.268 26.192-55.758 14.94-19.491-11.254-26.192-36.267-14.939-55.758zm-37.463 183.728a22.346 22.346 0 0013.662-10.484 22.347 22.347 0 002.248-17.072 22.35 22.35 0 00-10.482-13.662 22.344 22.344 0 00-17.074-2.248 22.351 22.351 0 00-13.662 10.484c-6.203 10.744-2.508 24.532 8.235 30.734a22.366 22.366 0 0017.073 2.248zm-9.573-15.239c-3.581-2.067-4.813-6.664-2.745-10.245a7.45 7.45 0 014.555-3.495 7.462 7.462 0 015.691.75c1.734 1.002 2.976 2.619 3.494 4.554s.252 3.956-.75 5.691v.001a7.453 7.453 0 01-4.554 3.494 7.457 7.457 0 01-5.691-.75zm95.171-123.377a7.5 7.5 0 00-2.745-10.245l-27.582-15.924c-3.589-2.07-8.176-.843-10.245 2.745a7.5 7.5 0 002.745 10.245l27.582 15.924c3.522 2.036 8.151.88 10.245-2.745zM310.174 457.014l-27.582-15.924a7.498 7.498 0 00-10.245 2.745 7.5 7.5 0 002.745 10.245l27.582 15.924a7.497 7.497 0 0010.245-2.745 7.501 7.501 0 00-2.745-10.245zm82.586-212.127l27.582 15.925c3.523 2.039 8.152.879 10.245-2.745a7.5 7.5 0 00-2.745-10.245l-27.582-15.925a7.5 7.5 0 00-10.245 2.745 7.5 7.5 0 002.745 10.245z"/></svg>