<svg version="1.1" id="Layer_1" xmlns="http://www.w3.org/2000/svg" x="0" y="0" viewBox="0 0 512.002 512.002" xml:space="preserve"><path d="M256.001 76.8c4.71 0 8.533-3.814 8.533-8.533s-3.823-8.533-8.533-8.533c-4.71 0-8.533 3.814-8.533 8.533s3.822 8.533 8.533 8.533zm-17.067 25.6a8.53 8.53 0 008.533-8.533 8.53 8.53 0 00-8.533-8.533 8.53 8.53 0 00-8.533 8.533 8.53 8.53 0 008.533 8.533zm34.133 0a8.53 8.53 0 008.533-8.533c0-4.719-3.823-8.533-8.533-8.533s-8.533 3.814-8.533 8.533a8.53 8.53 0 008.533 8.533zm-17.066 8.533c-4.71 0-8.533 3.814-8.533 8.533S251.29 128 256.001 128c4.71 0 8.533-3.814 8.533-8.533s-3.823-8.534-8.533-8.534zm-17.067 25.6c-4.71 0-8.533 3.814-8.533 8.533s3.823 8.533 8.533 8.533c4.71 0 8.533-3.814 8.533-8.533s-3.822-8.533-8.533-8.533zm34.133 17.067c4.71 0 8.533-3.814 8.533-8.533s-3.823-8.533-8.533-8.533-8.533 3.814-8.533 8.533 3.823 8.533 8.533 8.533zm-17.066 25.6c4.71 0 8.533-3.814 8.533-8.533s-3.823-8.533-8.533-8.533c-4.71 0-8.533 3.814-8.533 8.533s3.822 8.533 8.533 8.533zm-17.067 8.533c-4.71 0-8.533 3.814-8.533 8.533s3.823 8.533 8.533 8.533c4.71 0 8.533-3.814 8.533-8.533s-3.822-8.533-8.533-8.533zm34.133 0c-4.71 0-8.533 3.814-8.533 8.533s3.823 8.533 8.533 8.533 8.533-3.814 8.533-8.533-3.822-8.533-8.533-8.533zm17.067-25.6c-4.71 0-8.533 3.814-8.533 8.533s3.823 8.533 8.533 8.533c4.71 0 8.533-3.814 8.533-8.533s-3.822-8.533-8.533-8.533zm0-34.133c4.71 0 8.533-3.814 8.533-8.533s-3.823-8.533-8.533-8.533c-4.71 0-8.533 3.814-8.533 8.533s3.823 8.533 8.533 8.533zm-68.267 0c4.71 0 8.533-3.814 8.533-8.533s-3.823-8.533-8.533-8.533c-4.71 0-8.533 3.814-8.533 8.533s3.823 8.533 8.533 8.533zm0 34.133c-4.71 0-8.533 3.814-8.533 8.533s3.823 8.533 8.533 8.533c4.71 0 8.533-3.814 8.533-8.533s-3.822-8.533-8.533-8.533zm34.134 51.2c-4.71 0-8.533 3.814-8.533 8.533s3.823 8.533 8.533 8.533c4.71 0 8.533-3.814 8.533-8.533s-3.823-8.533-8.533-8.533zm-17.067 25.6c-4.71 0-8.533 3.814-8.533 8.533s3.823 8.533 8.533 8.533c4.71 0 8.533-3.814 8.533-8.533s-3.822-8.533-8.533-8.533zm34.133 0c-4.71 0-8.533 3.814-8.533 8.533s3.823 8.533 8.533 8.533 8.533-3.814 8.533-8.533-3.822-8.533-8.533-8.533z"/><path d="M256.001 34.133c-36.844 0-68.267 58.056-68.267 128s31.422 128 68.267 128 68.267-58.056 68.267-128-31.423-128-68.267-128zm0 238.934c-14.772 0-30.269-17.745-40.292-45.302a8.504 8.504 0 006.159 2.635c4.71 0 8.533-3.814 8.533-8.533s-3.823-8.533-8.533-8.533a8.53 8.53 0 00-8.476 7.57 178.32 178.32 0 01-4.429-17.191 8.522 8.522 0 004.371-7.446c0-4.182-3.004-7.647-6.966-8.383a211.132 211.132 0 01-1.568-25.75c0-2.876.058-5.724.171-8.542 4.631-.092 8.363-3.864 8.363-8.525 0-4.195-3.023-7.668-7.003-8.389 5.991-49.289 28.572-85.478 49.67-85.478 21.097 0 43.679 36.189 49.67 85.478-3.98.721-7.003 4.194-7.003 8.389 0 4.661 3.732 8.433 8.363 8.525.112 2.818.171 5.666.171 8.542 0 8.881-.553 17.499-1.568 25.75-3.961.736-6.966 4.202-6.966 8.383a8.522 8.522 0 004.371 7.446 178.397 178.397 0 01-4.429 17.191 8.53 8.53 0 00-8.476-7.57c-4.71 0-8.533 3.814-8.533 8.533s3.823 8.533 8.533 8.533a8.507 8.507 0 006.159-2.635c-10.023 27.556-25.521 45.302-40.292 45.302z"/><path d="M358.401 162.133C358.401 73.197 313.669 0 256.001 0c-57.668 0-102.4 73.197-102.4 162.133 0 74.454 31.539 138.846 76.8 156.98v12.845a447.967 447.967 0 00-8.533 87.019v57.438c0 18.565 14.052 34.582 32.313 35.538 19.594 1.019 35.954-14.556 35.954-34.088v-58.889c0-29.215-2.858-58.362-8.533-87.019v-12.845c45.26-18.133 76.799-82.525 76.799-156.979zM270.608 304.9a8.533 8.533 0 00-6.074 8.171V332.8l.166 1.674a430.872 430.872 0 018.368 84.505v58.889c0 9.768-8.178 17.555-17.997 17.044-8.886-.465-16.136-8.729-16.136-18.495v-57.438a430.88 430.88 0 018.368-84.505l.166-1.674v-19.729a8.533 8.533 0 00-6.074-8.171c-39.975-12.034-70.727-71.748-70.727-142.766 0-80.723 39.321-145.067 85.333-145.067s85.333 64.343 85.333 145.067c0 71.017-30.751 130.732-70.726 142.766z"/></svg>