<svg id="Capa_1" height="512" viewBox="0 0 512.001 512.001" width="512" xmlns="http://www.w3.org/2000/svg"><path d="M9.699 257.448l40.805 16.098c5.392 2.126 11.271 1.003 15.476-2.521l32.314 20.379 5.542 3.896c-7.03 11.126-5.229 26.33 5.46 35.393 5.873 4.98 13.336 7.105 20.641 6.309.429 7.679 3.921 14.518 9.604 19.335 5.585 4.736 12.876 7.161 20.64 6.314.432 7.676 3.922 14.513 9.605 19.331 5.637 4.78 12.942 7.154 20.653 6.313.403 7.231 3.646 14.29 9.592 19.332 11.486 9.741 28.765 8.328 38.504-3.157l6.484-7.611 10.927 8.064c18.892 13.945 45.594 2.521 48.057-20.658 19.478 7.078 40.16-6.573 40.46-27.537 18.36 3.452 34.652-9.883 35.675-27.571 23.815 6.361 45.356-17.705 34.84-41.237l29.2-18.755c4.181 4.953 11.129 6.824 17.324 4.38l40.805-16.097c7.854-3.098 11.725-12.009 8.626-19.865l-18.65-47.274a7.5 7.5 0 00-9.729-4.224 7.5 7.5 0 00-4.225 9.729l18.649 47.273a.315.315 0 01-.176.408l-40.805 16.097a.314.314 0 01-.407-.176l-51.28-129.988c-.015-.036-.048-.12.004-.239s.137-.152.172-.167l40.806-16.098a.285.285 0 01.24.004c.118.052.151.136.166.172l19.771 50.114a7.5 7.5 0 009.729 4.224 7.5 7.5 0 004.225-9.729l-19.771-50.113c-3.097-7.854-12.009-11.724-19.863-8.625l-40.807 16.098c-7.291 2.876-11.14 10.7-9.184 18.117l-21.875 8.074a42.585 42.585 0 01-21.369 2.105l-22.112-3.505a7.5 7.5 0 00-2.348 14.815l22.112 3.505a57.627 57.627 0 0028.912-2.849l22.073-8.148 42.686 108.201-32.184 20.671-.546-.403a.03.03 0 00-.007-.005l-62.035-45.782c-1.608-1.187-3.606-1.72-5.904-1.33-31.07 5.283-58.907-5.765-79.386-27.148-6.372-6.653-16.768-7.01-23.671-.812-19.867 17.843-47.63 35.242-67.055 16.781-1.93-1.833-1.944-5.219.987-7.111 24.744-15.917 50.377-38.266 71.005-59.134 5.134-5.195 12.518-7.61 19.765-6.461l28.469 4.513a7.495 7.495 0 008.581-6.233 7.5 7.5 0 00-6.233-8.582l-28.469-4.513c-12.004-1.902-24.257 2.11-32.78 10.732a513.68 513.68 0 01-8.39 8.288 107.059 107.059 0 00-29.796-6.011c-29.804-1.674-32.389-1.99-39.157-1.555a34.945 34.945 0 01-15.631-2.62l-13.218-5.531c1.908-7.374-1.935-15.207-9.197-18.071L72.22 98.971c-7.857-3.1-16.767.77-19.865 8.625L1.074 237.583c-3.105 7.872.75 16.759 8.625 19.865zm126.672 60.373c-4.395 5.184-12.188 5.827-17.374 1.431-5.22-4.426-5.812-12.206-1.441-17.361l18.551-21.774c4.291-5.063 12.105-5.897 17.374-1.431 5.196 4.405 5.838 12.177 1.43 17.374l-.005.006zm30.244 25.646c-4.405 5.195-12.174 5.837-17.373 1.43-5.22-4.426-5.812-12.206-1.441-17.361l18.551-21.774c4.607-5.436 13.146-5.911 18.287-.573.034.035.063.074.097.11 4.234 4.503 4.51 11.583.42 16.407zm30.245 25.644c-4.421 5.215-12.198 5.818-17.373 1.43-5.22-4.425-5.813-12.205-1.442-17.36l18.552-21.775c4.407-5.196 12.229-5.796 17.374-1.43 5.184 4.397 5.825 12.19 1.43 17.374l-.005.006zm48.887 3.752c-.031.038-.058.08-.09.117l-18.552 21.775c-4.395 5.185-12.188 5.826-17.373 1.431-5.185-4.396-5.826-12.189-1.442-17.36l18.552-21.775c4.42-5.214 12.204-5.815 17.373-1.43 5.086 4.31 5.865 12.002 1.532 17.242zM116.832 147.146l12.817 5.363a49.987 49.987 0 0022.381 3.751c5.736-.369 7.651-.107 37.354 1.562a92.065 92.065 0 0118.018 2.819c-14.675 13.252-31.155 26.535-47.662 37.135-10.583 6.794-12.151 21.746-2.984 30.458 12.529 11.905 40.548 25.591 87.41-16.496.84-.754 2.076-.744 2.813.027 22.7 23.694 54.876 36.929 89.623 32.046 3.937 2.767-3.686-2.819 59.628 43.908h.001c6.776 5 8.671 14.834 3.366 21.621-5.039 6.447-14.144 7.696-20.723 2.839-8.888-6.56-2.326-1.567-33.571-25.642a7.5 7.5 0 00-9.157 11.882l25.923 19.974c4.466 5.884 3.934 14.387-1.353 19.661-5.198 5.187-13.754 5.677-19.903 1.141-5.945-4.387-1.006-.628-28.272-21.62a7.499 7.499 0 00-10.518 1.368 7.5 7.5 0 001.367 10.518l22.986 17.697c4.341 5.615 4.128 13.691-.612 19.065-5.1 5.782-14.136 6.587-20.574 1.835-10.345-7.634-5.153-3.692-25.075-19.111a7.5 7.5 0 00-9.181 11.862l15.935 12.333c3.625 5.769 2.915 13.325-1.852 18.311-5.203 5.443-13.872 6.046-20.166 1.401l-10.082-7.44 2.316-2.719c4.618-5.444 7.002-12.495 6.392-19.914-.62-7.515-4.191-14.045-9.562-18.601-5.587-4.737-12.884-7.164-20.646-6.322-.408-7.246-3.731-14.345-9.599-19.323-5.566-4.719-12.632-6.987-19.915-6.392-.243.02-.486.043-.727.07-.014-.24-.022-.48-.042-.721-.477-5.799-2.737-11.17-6.452-15.503l-.067-.081a27.331 27.331 0 00-23.675-9.327c-.422-7.531-3.836-14.437-9.612-19.335-11.495-9.745-28.772-8.323-38.505 3.157l-11.303 13.267-6.607-4.644a6.501 6.501 0 00-.312-.208l-33.286-20.993 43.665-110.679zM15.027 243.089l51.28-129.987a.314.314 0 01.407-.177l40.805 16.098c.161.063.24.246.177.406L56.415 259.417a.31.31 0 01-.406.176l-40.805-16.098a.311.311 0 01-.177-.406z"/></svg>