<svg width="37" height="37" fill="none" xmlns="http://www.w3.org/2000/svg"><path d="M18.5 12.382c-3.369 0-6.118 2.75-6.118 6.118 0 3.369 2.75 6.118 6.118 6.118 3.369 0 6.118-2.75 6.118-6.118 0-3.369-2.75-6.118-6.118-6.118zM36.85 18.5c0-2.534.023-5.044-.12-7.573-.141-2.938-.811-5.545-2.96-7.693-2.152-2.152-4.755-2.818-7.692-2.96-2.534-.143-5.044-.12-7.573-.12-2.534 0-5.045-.023-7.574.12-2.937.142-5.544.812-7.692 2.96C1.086 5.387.42 7.99.279 10.927.135 13.46.158 15.97.158 18.5c0 2.529-.023 5.044.12 7.573.142 2.938.812 5.545 2.96 7.693 2.152 2.153 4.755 2.818 7.692 2.96 2.534.143 5.045.12 7.574.12 2.533 0 5.044.023 7.573-.12 2.937-.142 5.544-.812 7.692-2.96 2.153-2.153 2.819-4.755 2.96-7.693.148-2.529.12-5.04.12-7.573zM18.5 27.914A9.4 9.4 0 019.086 18.5 9.4 9.4 0 0118.5 9.086a9.4 9.4 0 019.414 9.414 9.4 9.4 0 01-9.414 9.414zm9.8-17.015a2.196 2.196 0 01-2.2-2.198c0-1.217.983-2.199 2.2-2.199a2.196 2.196 0 012.031 3.04A2.195 2.195 0 0128.3 10.9z" fill="#000"/></svg>