<svg width="35" height="43" fill="none" xmlns="http://www.w3.org/2000/svg"><path d="M17.5 0C10.47 0 4.707 5.745 4.707 12.756c0 2.717.868 5.242 2.337 7.317l8.895 15.378c1.246 1.628 2.074 1.319 3.11-.086l9.812-16.697c.197-.358.353-.74.488-1.13a12.59 12.59 0 00.943-4.782C30.292 5.745 24.532 0 17.5 0zm0 5.977c3.787 0 6.798 3.004 6.798 6.78 0 3.775-3.011 6.778-6.798 6.778-3.786 0-6.798-3.003-6.798-6.779 0-3.775 3.012-6.779 6.798-6.779z" fill="#000"/><path d="M25.633 21.03l-.021.055.018-.05.003-.005zm-15.01 8.665C4.548 30.553.3 32.605.3 35.629.3 39.699 7.398 43 17.5 43s17.2-3.3 17.2-7.371c0-3.023-4.248-5.076-10.322-5.934l-.841 1.432c4.578.635 7.723 1.97 7.723 3.519 0 2.172-6.16 3.931-13.76 3.931s-13.76-1.76-13.76-3.931c0-1.544 3.124-2.877 7.716-3.515-.277-.479-.556-.957-.834-1.436z" fill="#000"/></svg>