<svg height="512" viewBox="0 0 128 128" width="512" xmlns="http://www.w3.org/2000/svg"><path d="M100.5 33.373l-4.825-4.4V11.5h5a5.75 5.75 0 000-11.5H79.626a40.886 40.886 0 00-30.775 13.969 1.749 1.749 0 00.164 2.47l6.022 5.267a1.753 1.753 0 001.152.433h.117a1.75 1.75 0 001.2-.594 29.379 29.379 0 0121.172-10.017V28.97l-4.825 4.4a52.61 52.61 0 00-17.112 38.782v27.226a10.324 10.324 0 00-5.049-1.551c-3.546-11.3-14.18-14.438-14.648-14.571a1.75 1.75 0 00-2.123 2.281c.883 2.428-.588 6.876-4.041 12.282h-2.436a10.416 10.416 0 00-10.4 10.405 10.257 10.257 0 00.267 2.336 10.391 10.391 0 00-5.453 16.82 1.75 1.75 0 001.332.62h96.676a6.758 6.758 0 006.75-6.75v-49.1A52.61 52.61 0 00100.5 33.373zm-8.325-5.559h-10V11.5h10zM56.059 17.95l-3.392-2.967A37.393 37.393 0 0179.626 3.5h21.047a2.25 2.25 0 010 4.5H79.626a32.885 32.885 0 00-23.567 9.95zM13.884 120.657a6.928 6.928 0 016.811-6.9 1.75 1.75 0 001.549-2.518 6.82 6.82 0 01-.7-3.017 6.912 6.912 0 016.9-6.905h3.386a1.751 1.751 0 001.459-.783c3.4-5.125 5.192-9.422 5.371-12.831a18.994 18.994 0 0110.008 12.291 1.75 1.75 0 001.7 1.325h.921a6.913 6.913 0 016.9 6.905 6.783 6.783 0 01-.366 2.179H39.1a1.75 1.75 0 000 3.5h19.678a6.884 6.884 0 014.365 10.6H15.057a6.9 6.9 0 01-1.173-3.846zm100.232.591a3.254 3.254 0 01-3.25 3.25h-43.8a10.319 10.319 0 00.278-6.936 1.736 1.736 0 001.145.436h37.375a1.75 1.75 0 001.75-1.75v-44.1a1.75 1.75 0 00-1.75-1.75H68.491a1.749 1.749 0 00-1.75 1.75v43.9a10.405 10.405 0 00-5.431-5.042 10.341 10.341 0 00-1.069-8.062v-30.8a49.1 49.1 0 0115.971-36.185l4.894-4.466H93.25l4.894 4.466a49.1 49.1 0 0115.972 36.193zM70.241 114.5V73.9h33.875v40.6z"/></svg>