<svg width="30" height="30" fill="none" xmlns="http://www.w3.org/2000/svg"><path d="M15 0C6.716 0 0 6.716 0 15c0 8.284 6.716 15 15 15 8.284 0 15-6.716 15-15 0-8.284-6.716-15-15-15zM9.61 5.958c.308-.018.588.167.8.495l2.05 3.889c.216.46.094.954-.229 1.283l-.939.94a.46.46 0 00-.097.267c.36 1.394 1.453 2.68 2.417 3.565.964.885 2 2.082 3.345 2.366.167.046.37.063.49-.048l1.09-1.111c.377-.286.922-.424 1.325-.19h.018l3.7 2.184c.544.34.6.998.21 1.399l-2.548 2.528c-.376.386-.876.516-1.362.517-2.149-.065-4.18-1.12-5.847-2.203-2.737-1.991-5.248-4.461-6.824-7.445-.605-1.251-1.315-2.848-1.247-4.244.006-.526.148-1.04.518-1.38l2.55-2.547c.198-.169.395-.253.58-.264z" fill="#000"/></svg>