<svg id="Capa_1" height="512" width="512" xmlns="http://www.w3.org/2000/svg"><path d="M192.89 341.729c-22.922-7.726-43.655-6.609-61.624 3.315-17.107 9.45-31.835 27.128-43.776 52.541-6.421 13.669-7.22 27.608-2.308 40.309 4.445 11.495 13.175 20.805 24.581 26.215a48.731 48.731 0 0020.837 4.688c18.172-.001 37.761-10.251 50.21-36.244l27.187-56.792c4.349-9.058 3.146-15.975 1.371-20.183-2.67-6.328-8.368-11.117-16.478-13.849zm1.581 27.549l-27.191 56.799c-13.131 27.42-35.121 32.054-51.088 24.481-15.043-7.134-25.068-25.429-15.125-46.595 16.426-34.961 37.304-52.229 63.401-52.229 7.446 0 15.318 1.406 23.632 4.208h.001c3.864 1.302 6.508 3.242 7.446 5.465.839 1.989.478 4.634-1.076 7.871z"/><path d="M192.889 341.729h.001v.001z"/><path d="M470.47 424.932c-1.146-37.38-20.132-75.999-49.551-100.787-19.15-16.135-51.441-34.037-96.56-27.694-15.113 2.13-21.898-1.663-28.911-16.224l32.873-69.887a7.498 7.498 0 00-3.595-9.977 7.503 7.503 0 00-9.98 3.594l-27.661 58.807-23.123-48.298 89.073-186.128 5.657-11.851c1.934 1.945 4.694 5.717 7.195 11.71 3.6 8.621 13.723 40.201-7.113 84.559l-29.509 61.801c-1.784 3.738-.201 8.214 3.537 9.998s8.215.201 10-3.536l29.529-61.844c28.204-60.046 8.719-109.301-9.197-117.778-6.66-3.15-13.463-.839-16.541 5.618l-7.092 14.857-83.855 175.225L172.477 23.38l-7.098-14.9c-3.083-6.452-9.883-8.756-16.535-5.603-17.91 8.484-37.381 57.741-9.156 117.807l27.954 58.608a7.5 7.5 0 0013.539-6.456l-27.936-58.569c-20.854-44.38-10.745-75.959-7.149-84.58 2.498-5.991 5.256-9.766 7.189-11.715l5.656 11.871 122.9 256.701c1.241 2.591 2.53 4.97 3.878 7.143l-37.859 18.935-51.896-108.815c-1.783-3.738-6.26-5.327-9.998-3.541a7.498 7.498 0 00-3.542 9.996l33.377 69.984c-6.748 13.307-13.581 16.771-28.191 14.734-45.119-6.346-77.425 11.567-96.579 27.712-29.406 24.787-48.375 63.39-49.503 100.742-1.138 37.279 30.604 74.391 72.264 84.489 7.139 1.73 14.137 2.579 20.937 2.579 32.265 0 60.019-19.112 76.582-53.825l44.328-92.899 45.02 94.396C317.224 492.89 344.979 512 377.251 512c6.801 0 13.805-.849 20.944-2.58 41.667-10.099 73.414-47.211 72.275-84.488zm-272.696 25.287c-24.174 50.665-64.309 47.04-80.446 43.128-34.443-8.348-61.72-39.506-60.805-69.457 1.003-33.224 17.931-67.606 44.178-89.73 16.817-14.176 45.185-29.904 84.829-24.326 17.234 2.403 28.921-1.578 37.936-13.52l14.047 29.454c.05.113.093.227.149.339.02.039.046.073.066.112l9.605 20.139zm196.887 44.625c-16.137 3.911-56.286 7.541-80.462-43.126l-51.697-108.397a7.017 7.017 0 00-.162-.339l-8.022-16.82 41.603-20.807c7.886 5.999 17.661 7.761 30.53 5.948 39.621-5.569 67.989 10.145 84.802 24.312 26.26 22.126 43.205 56.526 44.225 89.776.914 29.946-26.368 61.103-60.817 69.453z"/><path d="M380.705 346.531c-17.964-9.92-38.698-11.032-61.622-3.304-8.099 2.728-13.79 7.505-16.459 13.816-1.777 4.2-2.986 11.11 1.348 20.181l27.193 56.801c12.462 26.01 32.056 36.265 50.236 36.264a48.746 48.746 0 0020.85-4.694c11.4-5.411 20.123-14.721 24.561-26.215 4.902-12.698 4.097-26.633-2.328-40.294-11.94-25.425-26.668-43.107-43.779-52.555zm15.112 105.514c-15.971 7.582-37.974 2.945-51.124-24.498l-27.189-56.793c-1.546-3.237-1.904-5.884-1.065-7.869.936-2.212 3.575-4.145 7.434-5.445h.001c8.318-2.803 16.192-4.21 23.641-4.21 26.099 0 46.976 17.271 63.392 52.234 9.95 21.156-.06 39.447-15.09 46.581zM254.196 282.271a7.5 7.5 0 007.446-8.477l-.142-1.074a7.501 7.501 0 00-8.413-6.458 7.499 7.499 0 00-6.459 8.412l.141 1.074a7.502 7.502 0 007.427 6.523z"/></svg>