<svg width="47" height="47" fill="none" xmlns="http://www.w3.org/2000/svg"><path d="M24.969 44.063c-3.795 0-7.36-.919-10.695-2.754L0 47l5.691-14.274c-1.836-3.336-2.753-6.9-2.753-10.695 0-2.998.58-5.852 1.744-8.56 1.162-2.708 2.73-5.049 4.704-7.022 1.974-1.974 4.315-3.542 7.023-4.705A21.47 21.47 0 0124.969 0c2.998 0 5.852.581 8.56 1.744s5.049 2.731 7.022 4.705c1.974 1.973 3.542 4.314 4.705 7.022A21.47 21.47 0 0147 22.031a21.47 21.47 0 01-1.744 8.56c-1.163 2.708-2.731 5.05-4.705 7.023-1.973 1.973-4.314 3.542-7.022 4.704a21.47 21.47 0 01-8.56 1.745zm7.343-17.626h-2.937l-1.652 1.47c-1.377-.368-3.068-1.554-5.072-3.558-2.004-2.004-3.19-3.695-3.557-5.072l1.468-1.652v-2.938c0-.52-.183-1.04-.55-1.56-.367-.52-.773-.895-1.217-1.125-.443-.23-.757-.252-.94-.068l-2.158 2.157c-1.193 1.193-1.369 3.052-.528 5.577.842 2.524 2.448 4.972 4.82 7.343 2.371 2.372 4.82 3.978 7.343 4.82 2.525.841 4.384.665 5.577-.528l2.157-2.158c.184-.183.161-.497-.068-.94-.23-.444-.605-.85-1.125-1.217-.52-.367-1.04-.55-1.56-.55z" fill="#000"/></svg>